<svg xmlns="http://www.w3.org/2000/svg" viewBox="0 0 15 13.33"><defs><style>.cls-1,.cls-2{fill:#fff;}.cls-1{stroke:#fff;}.cls-1,.cls-2,.cls-3,.cls-4{stroke-miterlimit:10;}.cls-2,.cls-3,.cls-4{stroke:#4b3082;}.cls-2,.cls-3{stroke-width:0.5px;}.cls-3,.cls-4{fill:none;stroke-linecap:round;}.cls-4{stroke-width:0.25px;}</style></defs><g id="Capa_2" data-name="Capa 2"><g id="Capa_13" data-name="Capa 13"><path class="cls-1" d="M13,4.91c.58-2.65-2.54-4.73-4.59-3.1-1.92-3-6.63-.35-5.25,3l-.86,0C-.11,5-.11,9.22,2.33,9.39l10.15,0C14.84,9.48,15.27,5.51,13,4.91Z"/><path class="cls-2" d="M12.53,4.91c.53-2.4-2.31-4.3-4.17-2.82-1.75-2.72-6-.32-4.78,2.73l-.78,0C.58,5,.58,8.83,2.8,9L12,9C14.17,9.07,14.57,5.46,12.53,4.91Z"/><path class="cls-1" d="M10,10.25V7.71a.28.28,0,0,0-.15-.26L7.7,6.18a.34.34,0,0,0-.31,0L5.2,7.45a.3.3,0,0,0-.15.26v2.54a.32.32,0,0,0,.15.26l2.19,1.27a.34.34,0,0,0,.31,0l2.19-1.27A.3.3,0,0,0,10,10.25Z"/><line class="cls-3" x1="11.11" y1="6.91" x2="7.55" y2="9"/><line class="cls-3" x1="11.11" y1="11.08" x2="7.55" y2="9"/><line class="cls-3" x1="7.55" y1="4.94" x2="7.55" y2="13.08"/><path class="cls-2" d="M9.82,10.13V7.86a.3.3,0,0,0-.15-.26l-2-1.14a.34.34,0,0,0-.31,0l-2,1.14a.29.29,0,0,0-.16.26v2.27a.32.32,0,0,0,.16.27l2,1.13a.29.29,0,0,0,.31,0l2-1.13A.33.33,0,0,0,9.82,10.13Z"/><line class="cls-4" x1="6.03" y1="7.96" x2="6.06" y2="10.04"/></g></g></svg>