<svg xmlns="http://www.w3.org/2000/svg" viewBox="0 0 6.73 11.48"><defs><style>.cls-1{fill:none;stroke:#004000;stroke-linecap:round;stroke-miterlimit:10;stroke-width:0.5px;}</style></defs><g id="Capa_2" data-name="Capa 2"><g id="Capa_13" data-name="Capa 13"><path class="cls-1" d="M.62.59a4.71,4.71,0,0,0,.75,3.58c1,1.17,2,.62,3.23,2a7.19,7.19,0,0,1,1.61,4.23c0,.3,0,.54,0,.71"/><path class="cls-1" d="M1.6,6.61A7.37,7.37,0,0,0,.26,10.53a5.34,5.34,0,0,0,0,.7"/><path class="cls-1" d="M6.41.25a4.64,4.64,0,0,1-.75,3.57"/><line class="cls-1" x1="2.49" y1="1.9" x2="0.71" y2="1.95"/><line class="cls-1" x1="4.44" y1="9.65" x2="5.95" y2="9.63"/><line class="cls-1" x1="4.38" y1="2.79" x2="5.95" y2="2.79"/><line class="cls-1" x1="0.95" y1="8.19" x2="2.52" y2="8.18"/></g></g></svg>