<svg xmlns="http://www.w3.org/2000/svg" viewBox="0 0 103.83 160.23"><defs><style>.cls-1,.cls-2{fill:none;stroke:sienna;stroke-miterlimit:10;}.cls-1{stroke-width:2px;}</style></defs><g id="Capa_2" data-name="Capa 2"><g id="Capa_7" data-name="Capa 7"><path class="cls-1" d="M1,32.11V83.9a5.16,5.16,0,0,0,2.6,4.48l45.56,26a5.17,5.17,0,0,0,5.11,0l45.56-26a5.18,5.18,0,0,0,2.6-4.48V32.11a5.18,5.18,0,0,0-2.6-4.48L54.27,1.68a5.12,5.12,0,0,0-5.11,0L3.6,27.63A5.16,5.16,0,0,0,1,32.11Z"/><path class="cls-2" d="M62,19.58c-4-7-15.27-7.15-19.4-.39-4.24,6.92,1.5,20.73,9.46,20.82S66.06,26.67,62,19.58Z"/><path class="cls-2" d="M39.21,67.7C35.61,59.09,31,50.41,27.35,41.79a1.46,1.46,0,0,1,1.09-2C34.4,38.72,46,37.1,46,37.1"/><path class="cls-2" d="M58.39,37.25l16.68,2.68a1.36,1.36,0,0,1,1,1.87c-3.63,8.68-8.25,17.35-11.88,26"/><line class="cls-2" x1="36.5" y1="68.5" x2="35.4" y2="59.31"/><path class="cls-2" d="M27.24,41.51l-4.47,25a6.28,6.28,0,0,0,.68,4.16l6.74,12.3a1.46,1.46,0,0,0,1.48,0"/><path class="cls-2" d="M39.38,83.44c.61,1.94,1.35,6.64-1.18,7.22-3.73.86-6.25-3-6.86-5a3.32,3.32,0,0,1,2.37-4.29C35.66,80.76,38.76,81.49,39.38,83.44Z"/><path class="cls-2" d="M35.6,90.33,37.15,95,40.84,94l-1.38-4.29"/><path class="cls-2" d="M36.81,81.27c-1.27-4-2.85-8.72-4.12-12.68l-4,1c1.22,3.66,2.8,8.55,4,12.21"/><path class="cls-2" d="M25.5,69.25h0a1.25,1.25,0,0,1-.62-1l0-.61a1.3,1.3,0,0,1,.64-1.13l1.06-.63a1.51,1.51,0,0,1,.37-.15l4.61-1.22a1.44,1.44,0,0,1,.77,0l1.28.34a1.35,1.35,0,0,1,.92.82l.1.26A1.18,1.18,0,0,1,34.48,67l-.61.91a1.35,1.35,0,0,1-.85.57l-5.08,1.16A3.21,3.21,0,0,1,25.5,69.25Z"/><path class="cls-2" d="M35.26,98.72h0a1.25,1.25,0,0,1-.62-1v-.61A1.25,1.25,0,0,1,35.27,96l1.06-.63a1.46,1.46,0,0,1,.36-.16l4.62-1.22a1.63,1.63,0,0,1,.76,0l1.28.34a1.37,1.37,0,0,1,.93.82l.1.26a1.24,1.24,0,0,1-.13,1.12l-.61.91a1.39,1.39,0,0,1-.85.58l-5.08,1.16A3.28,3.28,0,0,1,35.26,98.72Z"/><path class="cls-2" d="M27.21,65.37,27,63.71l.29-.9a1.9,1.9,0,0,1,2-.49l.67.47,1.29,1.72"/><path class="cls-2" d="M38.22,99.42l.62,1.57.71.67a1.91,1.91,0,0,0,2-.43l.35-.71.28-2.09"/><line class="cls-2" x1="66.93" y1="68.46" x2="68.18" y2="58.91"/><path class="cls-2" d="M76.23,41.44l4.43,25A6.3,6.3,0,0,1,80,70.6L73.23,82.9a1.45,1.45,0,0,1-1.47,0"/><path class="cls-2" d="M64.05,83.4c-.62,1.94-1.36,6.63,1.18,7.22,3.73.86,6.25-3.05,6.86-5a3.32,3.32,0,0,0-2.37-4.29C67.77,80.72,64.66,81.45,64.05,83.4Z"/><path class="cls-2" d="M67.83,90.29l-1.55,4.62L62.59,94,64,89.7"/><path class="cls-2" d="M66.62,81.23c1.27-4,2.85-8.72,4.12-12.68l4,1c-1.23,3.66-2.81,8.55-4,12.21"/><path class="cls-2" d="M77.93,69.21h0a1.25,1.25,0,0,0,.62-1l0-.61a1.3,1.3,0,0,0-.64-1.13l-1.06-.63a1.69,1.69,0,0,0-.37-.15l-4.62-1.22a1.4,1.4,0,0,0-.76,0l-1.28.34a1.37,1.37,0,0,0-.93.82l-.1.26A1.24,1.24,0,0,0,68.94,67l.61.91a1.4,1.4,0,0,0,.85.57l5.08,1.16A3.23,3.23,0,0,0,77.93,69.21Z"/><path class="cls-2" d="M68.17,98.68h0a1.3,1.3,0,0,0,.62-1V97a1.27,1.27,0,0,0-.64-1.12l-1.06-.63a1.53,1.53,0,0,0-.37-.16L62.12,93.9a1.51,1.51,0,0,0-.76,0l-1.28.34a1.35,1.35,0,0,0-.93.82l-.1.26a1.24,1.24,0,0,0,.13,1.12l.61.91a1.39,1.39,0,0,0,.85.58l5.08,1.16A3.28,3.28,0,0,0,68.17,98.68Z"/><path class="cls-2" d="M76.21,65.33l.25-1.66-.29-.9a1.9,1.9,0,0,0-2-.49l-.67.47-1.29,1.72"/><path class="cls-2" d="M65.2,99.38,64.59,101l-.71.67a1.91,1.91,0,0,1-2-.43l-.35-.71-.28-2.09"/><path class="cls-2" d="M70.18,69.17,53.39,65.48a5.76,5.76,0,0,0-2.41,0L33.25,69.21"/><path class="cls-2" d="M62.79,93.56l-9.19-3a5.06,5.06,0,0,0-3.15,0L40.63,93.6"/><line class="cls-2" x1="52.14" y1="45.21" x2="52.24" y2="65.38"/><line class="cls-2" x1="50.11" y1="47.48" x2="54.17" y2="47.48"/><line class="cls-2" x1="50.16" y1="51.26" x2="54.22" y2="51.26"/><line class="cls-2" x1="50.16" y1="55.21" x2="54.22" y2="55.21"/><line class="cls-2" x1="50.16" y1="59.21" x2="54.22" y2="59.21"/><line class="cls-2" x1="50.16" y1="63.21" x2="54.22" y2="63.21"/><path class="cls-2" d="M54.91,122.13v21.59a5.18,5.18,0,0,0,2.6,4.48l19.06,10.86a5.15,5.15,0,0,0,5.1,0l19.06-10.86a5.16,5.16,0,0,0,2.6-4.48V122.13a5.16,5.16,0,0,0-2.6-4.48L81.67,106.79a5.15,5.15,0,0,0-5.1,0L57.51,117.65A5.18,5.18,0,0,0,54.91,122.13Z"/><line class="cls-2" x1="35.89" y1="99.1" x2="34.11" y2="105.73"/><line class="cls-2" x1="68" y1="98.71" x2="69.98" y2="105.92"/><polyline class="cls-2" points="49.87 113.84 51.35 101.57 53.83 113.64"/></g></g></svg>