<svg xmlns="http://www.w3.org/2000/svg" viewBox="0 0 103.43 160.53"><defs><style>.cls-1,.cls-2,.cls-3{fill:none;stroke:#ff8c00;stroke-miterlimit:10;}.cls-1{stroke-width:2px;}.cls-3{stroke-width:0.5px;}</style></defs><g id="Capa_2" data-name="Capa 2"><g id="Capa_7" data-name="Capa 7"><path class="cls-1" d="M1,32.11V83.9a5.16,5.16,0,0,0,2.6,4.48l45.56,26a5.17,5.17,0,0,0,5.11,0l45.56-26a5.18,5.18,0,0,0,2.6-4.48V32.11a5.18,5.18,0,0,0-2.6-4.48L54.27,1.68a5.12,5.12,0,0,0-5.11,0L3.6,27.63A5.16,5.16,0,0,0,1,32.11Z"/><path class="cls-2" d="M54.06,122.42V144a5.18,5.18,0,0,0,2.6,4.48l19.06,10.85a5.15,5.15,0,0,0,5.1,0L99.88,148.5a5.16,5.16,0,0,0,2.6-4.48v-21.6a5.13,5.13,0,0,0-2.6-4.47L80.82,107.09a5.15,5.15,0,0,0-5.1,0L56.66,118A5.15,5.15,0,0,0,54.06,122.42Z"/><path class="cls-2" d="M41.2,28.41c-1.35,7.26,3.89,16.87,10.73,17S64.49,35.53,63,28.21"/><path class="cls-2" d="M45.82,42.45s-11.58,1.62-17.54,2.68a1.45,1.45,0,0,0-1.09,2c3.53,8.47,8.09,21,11.66,29.44a4.89,4.89,0,0,1,.29,1l.75,4.37"/><path class="cls-2" d="M58.23,42.6l16.68,2.68a1.36,1.36,0,0,1,1,1.87c-3.44,8.23-7.78,20.46-11.31,28.7a6,6,0,0,0-.47,2.78l.18,2.51"/><path class="cls-2" d="M35.28,68.11,34.23,73a5.51,5.51,0,0,0,1.65,5.34l5.29,4.84"/><path class="cls-2" d="M27.08,46.86,24.3,75.19c-.21,1.15-.28,5.74.33,7.12a2.62,2.62,0,0,0,1.21,1.29L42,93.29a1.45,1.45,0,0,0,1.47,0"/><path class="cls-2" d="M51.62,94.75a8.86,8.86,0,0,1-6.33.41,3.33,3.33,0,0,1-2-4.5c.37-1,.83-2.54,1.84-3.2"/><path class="cls-2" d="M50.3,88.35a10.53,10.53,0,0,1,1.29.75"/><path class="cls-2" d="M52.82,88.42c-4.92,0-11.66-.93-11.66-4.53,0-2.57,3.83-8.16,6.78-8.94.49-.13,1.5-.32,1.64-.89.2-.85-1.73-1.49-1.85-3.1a1.63,1.63,0,0,1,.6-1.52c.43-.23,1,0,1.71.33,1,.45,1.13.81,1.65.79s.56-.37,1.45-.85c.49-.27,1.55-.85,2.24-.46.47.26.31.72.79,1,.67.38,1.32-.33,1.85,0a1.62,1.62,0,0,1,.2,2c-.59.76-1.93.38-2,.79s1.12,1.05,1.65,1.38c2.44,1.53,4.79,7,4.63,9.44-.16,2.18-2.13,3.37-4.48,4"/><path class="cls-2" d="M68.05,67.78l1.15,5.14a5.53,5.53,0,0,1-1.65,5.34l-5.06,4.63"/><path class="cls-2" d="M76.12,46.67l3,28.47c.21,1.15.29,5.74-.32,7.12a2.64,2.64,0,0,1-1.22,1.29L61.39,93.24a1.28,1.28,0,0,1-1.47,0"/><path class="cls-2" d="M55,87.37c-1.92.69-6.1,3-5,5.33,1.59,3.48,6.22,3.1,8.14,2.41a3.32,3.32,0,0,0,2-4.5C59.41,88.69,56.93,86.67,55,87.37Z"/><path class="cls-2" d="M42.79,43.11c.92,1.11,4.86,5.71,9,5.75,5.08.06,8.24-4.5,9.43-5.68"/><line class="cls-2" x1="34.97" y1="44" x2="45.16" y2="76.92"/><line class="cls-2" x1="68.82" y1="44.73" x2="59.14" y2="75.73"/><path class="cls-2" d="M42.73,18.75c1.4-2.64,4.94-4.52,9.09-4.52S59.6,16.15,61,18.84"/><path class="cls-2" d="M42.28,18.86H60.37a4.91,4.91,0,0,1,4.91,4.91v1.4a3.91,3.91,0,0,1-3.91,3.91H42.28a3.91,3.91,0,0,1-3.91-3.91v-2.4A3.91,3.91,0,0,1,42.28,18.86Z"/><polyline class="cls-2" points="39.29 27.75 37.91 43.38 42.13 42.85 41.99 36.39"/><polyline class="cls-2" points="64.28 27.82 66.03 43.7 61.81 43.17 61.97 36.98"/><line class="cls-3" x1="51.76" y1="72.82" x2="51.76" y2="74.8"/><line class="cls-3" x1="53.06" y1="72.82" x2="53.06" y2="74.8"/><line class="cls-3" x1="54.21" y1="72.82" x2="54.21" y2="74.8"/><ellipse class="cls-3" cx="42.58" cy="47.11" rx="1.15" ry="1.76" transform="translate(-19.78 35.13) rotate(-37.01)"/><ellipse class="cls-3" cx="47.05" cy="51.95" rx="1.15" ry="1.76" transform="translate(-21.79 38.78) rotate(-37.01)"/><rect class="cls-3" x="50.17" y="55.61" width="3.16" height="3.16" transform="translate(55.6 -19.85) rotate(45)"/><line class="cls-3" x1="43.65" y1="48.52" x2="45.81" y2="50.52"/><line class="cls-3" x1="48.11" y1="53.35" x2="50.69" y2="55.9"/><line class="cls-3" x1="41.52" y1="45.7" x2="39.51" y2="43.51"/><ellipse class="cls-3" cx="61.03" cy="47.39" rx="1.76" ry="1.15" transform="translate(-13.55 67.59) rotate(-52.99)"/><ellipse class="cls-3" cx="56.57" cy="52.22" rx="1.76" ry="1.15" transform="translate(-19.18 65.96) rotate(-52.99)"/><line class="cls-3" x1="59.97" y1="48.79" x2="57.8" y2="50.79"/><line class="cls-3" x1="55.51" y1="53.63" x2="52.93" y2="56.18"/><line class="cls-3" x1="62.09" y1="45.98" x2="64.1" y2="43.78"/><line class="cls-2" x1="39.9" y1="91.91" x2="37" y2="107.61"/><line class="cls-2" x1="66.14" y1="90.2" x2="69.04" y2="105.89"/><line class="cls-2" x1="44.61" y1="95.26" x2="41.71" y2="110.95"/><line class="cls-2" x1="61.39" y1="93.18" x2="64.29" y2="108.88"/></g></g></svg>