<svg xmlns="http://www.w3.org/2000/svg" viewBox="0 0 103.43 116.01"><defs><style>.cls-1{fill:#4b2f90;}.cls-1,.cls-2,.cls-3,.cls-4{stroke:#250040;stroke-miterlimit:10;}.cls-1,.cls-2,.cls-3{stroke-width:0.25px;}.cls-2{fill:indigo;}.cls-3{fill:#250040;}.cls-4{fill:none;stroke-width:2px;}</style></defs><g id="Capa_2" data-name="Capa 2"><g id="Capa_11" data-name="Capa 11"><path class="cls-1" d="M51.34,50.52A120.84,120.84,0,0,1,66.49,64.26c7.61,8.2,17.25,18.57,14.86,26.16-1.25,4-5.46,5.91-5.42,5.94A9,9,0,0,0,80,89.89,10.54,10.54,0,0,0,79.72,87a27,27,0,0,0-3.17-8.48C72,70.64,64,66.87,61.13,62.07a23.35,23.35,0,0,0-6.08-7.15c-5.56-4.78-6.22-2.31-8.18-2.91"/><path class="cls-1" d="M50.08,65.16A121.46,121.46,0,0,0,67.55,54.62c9.14-6.63,20.69-15,20.63-23.43a11.44,11.44,0,0,0-3.28-7.45,9.7,9.7,0,0,1,1.9,7.67,12.79,12.79,0,0,1-1,2.88,31.28,31.28,0,0,1-5.2,8c-6.31,7-14.55,9-18.47,13.3a24.58,24.58,0,0,1-7.45,5.92c-6.35,3.59-6.26.88-8.2,1"/><path class="cls-2" d="M49.89,42.59a7.81,7.81,0,0,0,1.7-3.4,14.53,14.53,0,0,0,0-4.26c-.19-1.48-.54-2.56,0-3a.7.7,0,0,1,.72-.11c.48.24.39,1.21.31,2.88a28.25,28.25,0,0,0-.05,4.47,10.56,10.56,0,0,0,.72,2.88"/><path class="cls-1" d="M52.09,50.43A121.62,121.62,0,0,0,36.94,64.17c-7.62,8.2-17.25,18.58-14.87,26.16,1.26,4,5.46,5.92,5.43,6a9.05,9.05,0,0,1-4.07-6.48,10.54,10.54,0,0,1,.28-2.86,26.58,26.58,0,0,1,3.17-8.48C31.48,70.55,39.45,66.78,42.3,62a23.27,23.27,0,0,1,6.07-7.15c5.57-4.78,6.23-2.31,8.18-2.91"/><path class="cls-1" d="M53.35,65.07A120,120,0,0,1,35.88,54.53c-9.14-6.63-20.7-15-20.63-23.43a11.44,11.44,0,0,1,3.28-7.45,9.69,9.69,0,0,0-1.91,7.67,13.13,13.13,0,0,0,1,2.89,31.46,31.46,0,0,0,5.2,8c6.31,7,14.54,9,18.47,13.3a24.29,24.29,0,0,0,7.45,5.92c6.34,3.59,6.26.88,8.2,1"/><ellipse class="cls-2" cx="55.86" cy="74.26" rx="10.33" ry="7.38"/><ellipse class="cls-2" cx="59.15" cy="77.34" rx="10.33" ry="7.38"/><ellipse class="cls-2" cx="60.22" cy="80.02" rx="10.33" ry="7.38"/><ellipse class="cls-2" cx="59.87" cy="82.18" rx="10.33" ry="7.38"/><ellipse class="cls-2" cx="56.21" cy="83.59" rx="10.33" ry="7.38"/><ellipse class="cls-1" cx="56.21" cy="85.07" rx="8.27" ry="5.9"/><ellipse class="cls-2" cx="53.59" cy="79.95" rx="10.33" ry="7.38"/><ellipse class="cls-1" cx="53.59" cy="81.43" rx="8.27" ry="5.9"/><ellipse class="cls-2" cx="52.77" cy="74.71" rx="10.33" ry="7.38"/><ellipse class="cls-1" cx="52.77" cy="76.19" rx="8.27" ry="5.9"/><ellipse class="cls-2" cx="52.25" cy="71.43" rx="10.33" ry="7.38"/><ellipse class="cls-1" cx="52.25" cy="72.9" rx="8.27" ry="5.9"/><ellipse class="cls-2" cx="52.25" cy="69.54" rx="9.59" ry="6.85"/><ellipse class="cls-1" cx="52.25" cy="70.91" rx="7.67" ry="5.48"/><ellipse class="cls-2" cx="51.73" cy="66.49" rx="9.59" ry="6.85"/><ellipse class="cls-1" cx="51.73" cy="67.86" rx="7.67" ry="5.48"/><ellipse class="cls-2" cx="51.73" cy="63.43" rx="8.9" ry="6.36"/><ellipse class="cls-1" cx="51.73" cy="64.71" rx="7.12" ry="5.09"/><ellipse class="cls-2" cx="51.73" cy="61.55" rx="8.9" ry="6.36"/><ellipse class="cls-1" cx="51.73" cy="62.82" rx="7.12" ry="5.09"/><ellipse class="cls-2" cx="51.73" cy="59.89" rx="8.9" ry="6.36"/><ellipse class="cls-1" cx="51.73" cy="61.16" rx="7.12" ry="5.09"/><ellipse class="cls-2" cx="51.73" cy="58.01" rx="8.9" ry="6.36"/><ellipse class="cls-1" cx="51.73" cy="59.28" rx="7.12" ry="5.09"/><ellipse class="cls-2" cx="51.73" cy="56.34" rx="8.9" ry="6.36"/><ellipse class="cls-1" cx="51.73" cy="57.61" rx="7.12" ry="5.09"/><ellipse class="cls-2" cx="51.73" cy="54.46" rx="8.9" ry="6.36"/><ellipse class="cls-1" cx="51.73" cy="55.73" rx="7.12" ry="5.09"/><ellipse class="cls-2" cx="51.73" cy="52.8" rx="8.9" ry="6.36"/><ellipse class="cls-1" cx="51.73" cy="54.07" rx="7.12" ry="5.09"/><ellipse class="cls-2" cx="51.73" cy="50.92" rx="8.9" ry="6.36"/><ellipse class="cls-1" cx="51.73" cy="52.19" rx="7.12" ry="5.09"/><ellipse class="cls-2" cx="51.73" cy="49.27" rx="8.9" ry="6.36"/><ellipse class="cls-2" cx="51.73" cy="44.93" rx="10.16" ry="7.26"/><ellipse class="cls-2" cx="51.73" cy="46.17" rx="9.53" ry="6.8"/><path class="cls-3" d="M59.13,48.53c1.19,3.14-3.3,6.09-7.37,6.09s-8.78-3-7.38-6.09c2-4.34,3.3-6.08,7.38-6.08S57.45,44.12,59.13,48.53Z"/><path class="cls-2" d="M45.12,40.33A4.39,4.39,0,0,0,45,38c-.45-1.28-1.41-1.87-1.29-3,0-.08.08-.66.33-.71s.78,1.12,1.72,2.47a12.2,12.2,0,0,0,1.66,1.93"/><path class="cls-2" d="M43.6,44.56a4.48,4.48,0,0,0-.12-2.29c-.45-1.29-1.42-1.87-1.29-3,0-.07.08-.66.32-.71s.79,1.12,1.73,2.48A11.7,11.7,0,0,0,45.9,43"/><path class="cls-2" d="M59,41a4.5,4.5,0,0,1,.13-2.3c.45-1.29,1.41-1.87,1.29-3,0-.07-.08-.65-.33-.71s-.78,1.12-1.72,2.48a12.2,12.2,0,0,1-1.66,1.93"/><path class="cls-2" d="M60.2,45.33a4.39,4.39,0,0,1,.13-2.3c.45-1.28,1.41-1.87,1.29-3,0-.08-.08-.66-.33-.71s-.78,1.12-1.72,2.47a12.2,12.2,0,0,1-1.66,1.93"/><path class="cls-2" d="M48.38,41.79a4.47,4.47,0,0,0,.38-2.27c-.15-1.35-1-2.14-.59-3.21,0-.08.22-.63.47-.63s.52,1.27,1.13,2.8A12,12,0,0,0,51,40.72"/><path class="cls-2" d="M55.79,41.7a4.37,4.37,0,0,1-.56-2.23c.05-1.36.8-2.2.34-3.25,0-.07-.27-.61-.52-.58s-.42,1.3-.91,2.87a12.52,12.52,0,0,1-1,2.34"/><path class="cls-2" d="M61.73,45.47a4.38,4.38,0,0,1,1.35-1.86c1.07-.84,2.2-.81,2.71-1.83,0-.07.29-.6.11-.77s-1.27.51-2.79,1.14a11.77,11.77,0,0,1-2.44.72"/><path class="cls-1" d="M57.65,49.07c1,2.56-2.68,5-6,5s-7.12-2.47-6-5c1.62-3.53,2.68-4.94,6-4.94S56.29,45.49,57.65,49.07Z"/><path class="cls-2" d="M41.87,45.88A4.53,4.53,0,0,0,40.52,44c-1.08-.84-2.21-.8-2.71-1.83,0-.06-.3-.59-.12-.77s1.27.52,2.79,1.15a11.77,11.77,0,0,0,2.44.72"/><ellipse class="cls-2" cx="51.8" cy="50.73" rx="3.37" ry="2.44"/><ellipse class="cls-3" cx="51.74" cy="50.82" rx="2.5" ry="1.41"/><path class="cls-1" d="M50,48.32c0-.27-.6.09-.73.33-.41.71.89,2.26,1.26,2.12S49.88,49.71,50,48.32Z"/><path class="cls-1" d="M51.65,47.92c.1-.26-.6-.1-.8.09-.6.56.18,2.43.57,2.4S51.12,49.2,51.65,47.92Z"/><path class="cls-1" d="M53.56,48.35c0-.27.6.09.74.33.41.71-.9,2.26-1.27,2.12S53.69,49.74,53.56,48.35Z"/><path class="cls-1" d="M51.91,48c-.1-.26.6-.1.8.09.61.56-.17,2.43-.57,2.4S52.45,49.23,51.91,48Z"/><path class="cls-1" d="M50.23,53.1c0,.28-.6-.09-.73-.32-.41-.72.89-2.27,1.26-2.12S50.11,51.72,50.23,53.1Z"/><path class="cls-1" d="M51.88,53.51c.1.25-.6.09-.8-.09-.6-.56.18-2.43.57-2.41S51.35,52.22,51.88,53.51Z"/><path class="cls-1" d="M53.79,53.07c0,.28.6-.09.74-.32.41-.72-.9-2.27-1.27-2.12S53.92,51.69,53.79,53.07Z"/><path class="cls-1" d="M52.14,53.48c-.1.25.6.09.8-.1.61-.55-.17-2.43-.57-2.4S52.68,52.19,52.14,53.48Z"/><path class="cls-1" d="M48.06,50.34c-.26,0-.2.85.1.83A16.14,16.14,0,0,0,50,50.88C50.34,50.86,49.17,50.12,48.06,50.34Z"/><path class="cls-1" d="M55.64,50.17c.26,0,.19.85-.11.83-1.33-.08-1.07-.25-1.8-.29C53.36,50.69,54.52,50,55.64,50.17Z"/><path class="cls-4" d="M1,32.11V83.9a5.16,5.16,0,0,0,2.6,4.48l45.56,26a5.17,5.17,0,0,0,5.11,0l45.56-26a5.18,5.18,0,0,0,2.6-4.48V32.11a5.18,5.18,0,0,0-2.6-4.48L54.27,1.68a5.12,5.12,0,0,0-5.11,0L3.6,27.63A5.16,5.16,0,0,0,1,32.11Z"/></g></g></svg>