<svg xmlns="http://www.w3.org/2000/svg" viewBox="0 0 82.41 72.72"><defs><style>.cls-1,.cls-2{fill:#500000;}.cls-2{stroke:#250040;stroke-miterlimit:10;stroke-opacity:0;stroke-width:3px;}</style></defs><g id="Capa_2" data-name="Capa 2"><g id="Capa_11" data-name="Capa 11"><path class="cls-1" d="M47.63,32.88c-2.77,29,6.28,28.37-2.23,37.79-.45.5-6.2,3.79-9.23.82-6.8-6.69.87-8.84-2.09-35.62A14.22,14.22,0,0,1,34,33.1Z"/><path class="cls-2" d="M1.52,25.33C.5,18.43,35,5.93,39.67,5a24.65,24.65,0,0,0,2.55-.62c4.12-1.24,5.13-2.84,7.16-2.86,2.36,0,4.13,2.09,4.91,3,7.9,8.81,27.43,15.86,26.59,21C79.27,35.22,3,35.33,1.52,25.33Z"/></g></g></svg>