<svg xmlns="http://www.w3.org/2000/svg" viewBox="0 0 103.43 116.01"><defs><style>.cls-1,.cls-2{fill:none;}.cls-1,.cls-2,.cls-3{stroke:sienna;stroke-miterlimit:10;}.cls-1{stroke-width:2px;}.cls-2{stroke-width:3px;}.cls-3{fill:sienna;}</style></defs><g id="Capa_2" data-name="Capa 2"><g id="Capa_11" data-name="Capa 11"><path class="cls-1" d="M1,32.11V83.9a5.16,5.16,0,0,0,2.6,4.48l45.56,26a5.17,5.17,0,0,0,5.11,0l45.56-26a5.18,5.18,0,0,0,2.6-4.48V32.11a5.18,5.18,0,0,0-2.6-4.48L54.27,1.68a5.12,5.12,0,0,0-5.11,0L3.6,27.63A5.16,5.16,0,0,0,1,32.11Z"/><path class="cls-2" d="M12,46.33C11,39.43,45.46,26.93,50.18,26a24.65,24.65,0,0,0,2.55-.62c4.12-1.24,5.13-2.84,7.16-2.86,2.36,0,4.13,2.09,4.91,3,7.9,8.81,27.43,15.86,26.59,21C89.78,56.22,13.51,56.32,12,46.33Z"/><path class="cls-3" d="M58.93,53.68c-2.77,29,6.29,28.37-2.23,37.79-.45.49-6.2,3.79-9.23.82-6.8-6.69.87-8.84-2.09-35.62a14.33,14.33,0,0,1-.07-2.78Z"/><path class="cls-3" d="M47.62,31.29c-1.43-.57-3.66,1.37-4.09,3.38a2.51,2.51,0,0,0,.31,2.15c.94,1,3.61.74,4.7-.92S48.88,31.8,47.62,31.29Z"/><path class="cls-3" d="M59,25.8c-1.43-.57-3.65,1.36-4.09,3.37a2.51,2.51,0,0,0,.31,2.15c.94,1,3.61.74,4.7-.92S60.24,26.3,59,25.8Z"/><path class="cls-3" d="M56.53,35.92c-1.43-.57-3.66,1.36-4.09,3.37a2.5,2.5,0,0,0,.3,2.15c.95,1,3.61.75,4.71-.92S57.79,36.42,56.53,35.92Z"/><path class="cls-3" d="M65.7,31.23c-1.54,0-2.94,2.56-2.63,4.6a2.51,2.51,0,0,0,1,1.9c1.25.63,3.65-.58,4.08-2.52S67.06,31.25,65.7,31.23Z"/><path class="cls-3" d="M70.59,40.05C69.1,39.69,67.18,41.93,67,44a2.51,2.51,0,0,0,.62,2.08c1.09.89,3.68.21,4.52-1.6S71.91,40.36,70.59,40.05Z"/><path class="cls-3" d="M45.46,41.15c-1.51-.32-3.37,2-3.46,4a2.55,2.55,0,0,0,.67,2.07c1.11.85,3.69.11,4.48-1.71S46.79,41.43,45.46,41.15Z"/><path class="cls-3" d="M61.13,44.51c-1.43-.57-3.66,1.36-4.09,3.38A2.49,2.49,0,0,0,57.35,50c.94,1,3.61.75,4.7-.92S62.39,45,61.13,44.51Z"/><path class="cls-3" d="M36.47,38.83c-1.28-.85-3.86.57-4.71,2.45a2.54,2.54,0,0,0-.15,2.16c.71,1.21,3.38,1.49,4.8.09S37.6,39.59,36.47,38.83Z"/><path class="cls-3" d="M25.44,40.83c-1.43-.57-3.66,1.36-4.09,3.37a2.5,2.5,0,0,0,.3,2.15c1,1,3.62.75,4.71-.92S26.7,41.33,25.44,40.83Z"/><path class="cls-3" d="M51.28,24.88c-1-1.15-3.89-.4-5.17,1.21a2.54,2.54,0,0,0-.67,2.06c.39,1.35,2.91,2.27,4.62,1.26S52.18,25.89,51.28,24.88Z"/><path class="cls-3" d="M35.24,30.62c-.88-1.26-3.8-.86-5.27.59a2.56,2.56,0,0,0-.91,2c.23,1.38,2.62,2.6,4.44,1.8S36,31.72,35.24,30.62Z"/><path class="cls-3" d="M78.3,41.89c-1.51.29-2.34,3.12-1.61,5,.12.33.52,1.4,1.42,1.64,1.35.36,3.44-1.32,3.46-3.32S79.63,41.63,78.3,41.89Z"/><path class="cls-3" d="M18.25,39.72c-.89-1.25-3.81-.85-5.27.6a2.53,2.53,0,0,0-.92,2c.23,1.38,2.62,2.59,4.45,1.79S19,40.83,18.25,39.72Z"/><path class="cls-3" d="M71,31.31c-.62,1.41,1.23,3.71,3.23,4.21a2.5,2.5,0,0,0,2.16-.23c1.06-.91.87-3.58-.76-4.73S71.53,30.07,71,31.31Z"/><path class="cls-3" d="M83.73,38.8c-.9,1.25.43,3.88,2.28,4.79a2.47,2.47,0,0,0,2.15.23c1.24-.66,1.61-3.32.26-4.78S84.53,37.71,83.73,38.8Z"/></g></g></svg>