<svg xmlns="http://www.w3.org/2000/svg" viewBox="0 0 56.32 53.62"><defs><style>.cls-1{fill:#7d0000;}.cls-1,.cls-2,.cls-3,.cls-4{stroke:#500000;stroke-miterlimit:10;}.cls-2{fill:#c70000;}.cls-3{fill:#f01a0e;}.cls-4{fill:#8c0000;}</style></defs><g id="Capa_2" data-name="Capa 2"><g id="Capa_11" data-name="Capa 11"><polygon class="cls-1" points="28.16 18.76 27.58 51.18 13.61 17.75 28.16 18.76"/><polygon class="cls-1" points="13.84 17.83 26.24 50.24 1.24 15.67 13.84 17.83"/><polygon class="cls-2" points="14.04 17.71 28.16 18.5 28.16 7.06 17.83 6.99 14.04 17.71"/><polygon class="cls-2" points="13.96 17.39 0.97 14.7 9.72 5.3 17.59 7.03 13.96 17.39"/><polygon class="cls-3" points="10.2 4.86 17.83 6.57 38.55 6.67 46.42 5.14 44.85 3.06 38.13 0.53 19.88 0.5 13.08 2.53 10.2 4.86"/><polygon class="cls-1" points="28.16 18.76 28.74 51.17 42.71 17.75 28.16 18.76"/><polygon class="cls-4" points="42.48 17.82 30.08 50.23 55.08 15.67 42.48 17.82"/><polygon class="cls-2" points="42.28 17.71 28.16 18.5 28.16 7.06 38.49 6.99 42.28 17.71"/><polygon class="cls-2" points="42.36 17.38 55.35 14.7 46.6 5.3 38.73 7.03 42.36 17.38"/></g></g></svg>