<svg xmlns="http://www.w3.org/2000/svg" viewBox="0 0 125 192.74"><defs><style>.cls-1,.cls-3,.cls-5{fill:#500000;}.cls-1,.cls-2,.cls-3,.cls-4,.cls-5,.cls-6,.cls-8,.cls-9{stroke:#500000;}.cls-1,.cls-2,.cls-3,.cls-4,.cls-5,.cls-6,.cls-7,.cls-8,.cls-9{stroke-miterlimit:10;}.cls-1,.cls-2,.cls-8{stroke-width:0.75px;}.cls-2,.cls-4,.cls-6{fill:#8c0000;}.cls-5,.cls-6,.cls-7{stroke-width:0.5px;}.cls-7{stroke:#000;}.cls-8,.cls-9{fill:#c70000;}</style></defs><g id="Capa_2" data-name="Capa 2"><g id="Capa_11" data-name="Capa 11"><path class="cls-1" d="M.41,38.17c-.93.43,15-15.37,26.08-26.22A22.87,22.87,0,0,1,45.9,5.85c11.44,2,17,13,19.67,18.26,4.35,8.62,4.15,16.75,3.74,33-.39,15.3-2.88,17.8-4.7,18.53-2,.79-4.83.06-5.81-1.57-1.46-2.41,1.82-5.62,4-11.3,1.95-5,1.86-9.2,1.69-17.52-.19-8.85-.29-13.8-2.91-19.65-1.75-3.92-6-13.41-15.78-15.69C40,8.58,32,9.74,27.75,14.9,23.18,20.49,1.29,37.76.41,38.17Z"/><path class="cls-2" d="M34.76,34.32c-.93.43-1.32-16.69,9.72-27.54C49.36,2,52.87-.53,59.89.67c11.45,2,17,13,19.68,18.27,4.34,8.61,4.14,16.75,3.73,33-.38,15.29-2.87,17.8-4.7,18.52-2,.8-4.83.07-5.81-1.56-1.45-2.41,1.82-5.62,4-11.3,2-5.05,1.86-9.21,1.69-17.52-.19-8.85-.29-13.8-2.91-19.66-1.75-3.91-6-13.4-15.78-15.68C54,3.41,50,4.56,45.75,9.73,41.17,15.32,35.63,33.92,34.76,34.32Z"/><path class="cls-3" d="M33.05,79.72c2,1.94,3.14,2,3.07,3,0,.55-.43,1-3.06,3.09-3.23,2.62-4.05,3.12-4.8,4.41a9.86,9.86,0,0,0-1,3.38c-1,4.39-4.38,6.08-7.29,10.1-4.49,6.19-4,12.51-4.77,12.53s-2.39-8.46,1.61-15.33c2.4-4.11,4.89-4.43,7.55-9.95.54-1.14,1.32-3,2.89-6.72,1.81-4.33,2.58-6.35,3.61-6.52C31.47,77.56,31.54,78.25,33.05,79.72Z"/><path class="cls-3" d="M31.79,77.36c2.43,0,4.17,3.65,4.15,6.37,0,2.08-1,2.22-1.71,4.71-1.14,4.31.28,10.12,3,12.53a6.7,6.7,0,0,1,1.85,2.38,4.19,4.19,0,0,1,.4,2.94c-.84,2.29-5.55,2.94-6.53,1.58-.69-1,1.1-2.08,1.27-4.73.25-3.89-3.41-4.53-4.37-9.66-.57-3,.5-4-.67-6.94-.8-2-1.65-2.41-1.69-3.88C27.41,80.25,29.56,77.31,31.79,77.36Z"/><path class="cls-3" d="M53.66,120.07c1.24,1,5.74,4.53,10.08,2.87,4-1.54,6.38-6.93,5.05-10.46-.78-2.1-2.27-1.91-10.54-6.11-6.76-3.44-8.47-4.94-12.33-5a19.13,19.13,0,0,0-6.1,1c-1.78.52-7.6,2.24-7.58,4.51,0,1.34,2,2.8,4,3.09C39.86,110.53,48.12,115.69,53.66,120.07Z"/><path class="cls-4" d="M111.66,100c-2.43,1.33-3.56,1.07-3.76,2-.11.53.16,1,2.11,3.8,2.4,3.4,3,4.11,3.41,5.55a10.08,10.08,0,0,1,.08,3.53c-.2,4.51,2.56,7,4.26,11.7,2.63,7.19.44,13.14,1.18,13.37s4.6-7.5,2.62-15.19c-1.18-4.61-3.49-5.59-4.55-11.64-.21-1.24-.46-3.24-1-7.25-.56-4.66-.75-6.81-1.7-7.26C113.78,98.37,113.52,99,111.66,100Z"/><path class="cls-4" d="M113.52,98.09c-2.35-.6-5,2.38-5.73,5-.55,2,.4,2.41.36,5-.07,4.46-3,9.66-6.3,11.24a6.57,6.57,0,0,0-2.42,1.79,4.14,4.14,0,0,0-1.19,2.71c.18,2.44,4.54,4.35,5.85,3.3.93-.74-.49-2.29.07-4.89.82-3.81,4.51-3.43,6.83-8.11,1.38-2.78.62-4,2.54-6.49,1.32-1.71,2.24-1.87,2.69-3.27C116.94,102.07,115.68,98.65,113.52,98.09Z"/><path class="cls-4" d="M80.84,133.23c-1.46.6-6.75,2.8-10.48,0-3.44-2.57-4.25-8.4-2-11.43,1.33-1.81,2.7-1.22,11.81-3,7.44-1.46,9.49-2.44,13.22-1.45A19.48,19.48,0,0,1,99,120c1.56,1,6.7,4.23,6.06,6.41-.37,1.28-2.74,2.13-4.71,1.87C96.72,127.82,87.36,130.53,80.84,133.23Z"/><path class="cls-5" d="M29.38,159.9c1.75.11,3-1.69,3.48-2.46,1.24-1.84.48-2.55,1.45-3.73,1.43-1.74,3.41-.62,6.65-2.63,1-.61,2.54-1.57,2.49-2.91a2.16,2.16,0,0,0-1.63-2c-1.09-.15-1.47,1.24-3.27,2.62-2.72,2.08-4.38.87-6.61,3-1.19,1.14-.84,1.61-2.3,2.89-1.72,1.5-2.95,1.49-3.1,2.41C26.35,158.22,27.83,159.8,29.38,159.9Z"/><path class="cls-5" d="M16.41,159.68c-.27-1,2.3-3.29,5-3.29,2.3,0,3.72,1.73,5.17.92.86-.49.86-1.38,1.7-1.51a1.93,1.93,0,0,1,2,1.46,1.86,1.86,0,0,1-.73,1.77c-.75.57-1.62.29-2.7.21-2.29-.15-2.61.83-5.31,1.17C19.72,160.64,16.67,160.59,16.41,159.68Z"/><path class="cls-5" d="M16.64,156.42A3.47,3.47,0,0,1,19,159.78c-.74,5.68-1.52,1.32-6.07,11.08a21.21,21.21,0,0,0-1.11,3.67c-.15,0-.2-3.44.6-7.82s-1.38-5.83-.25-7.92C13.05,157.22,15.06,155.94,16.64,156.42Z"/><path class="cls-6" d="M70,172.26c-1.59-.73-1.81-2.89-1.91-3.81-.23-2.21.78-2.47.48-4-.44-2.21-2.71-2.16-4.62-5.46-.58-1-1.49-2.58-.82-3.74a2.17,2.17,0,0,1,2.37-1c1,.39.71,1.79,1.65,3.86,1.41,3.11,3.45,2.83,4.4,5.76.52,1.57,0,1.82.67,3.63.81,2.13,1.89,2.71,1.6,3.6C73.41,172.22,71.36,172.91,70,172.26Z"/><path class="cls-6" d="M81.49,178.19c.68-.71-.48-4-2.84-5.25-2-1.08-4.1-.23-5-1.63-.53-.83-.11-1.62-.79-2.13a1.93,1.93,0,0,0-2.49.32,1.87,1.87,0,0,0-.19,1.91c.39.85,1.29,1,2.28,1.46,2.09.95,1.91,2,4.13,3.53C78.12,177.48,80.83,178.87,81.49,178.19Z"/><path class="cls-6" d="M79.8,174.07a3.46,3.46,0,0,0-2.64,3.17c.29,5.72,1.41,1.43,5.19,11.52a21.29,21.29,0,0,1,.82,3.73c.15,0,.47-3.41,0-7.84s1.83-5.7.87-7.87C83.32,175.15,81.41,173.72,79.8,174.07Z"/><path class="cls-5" d="M44.14,172.69a4.79,4.79,0,0,1,.58,1.93,5.1,5.1,0,0,1-1.16,3.53s1.21-1.78.59-2.7c-.33-.49-.94-.39-1.18-1-.06-.13-.08-.26.08-1.31.19-1.26.26-1.37.35-1.39C43.65,171.73,44,172.39,44.14,172.69Z"/><path class="cls-5" d="M46.66,172a4.78,4.78,0,0,1,.86,1.83,5,5,0,0,1-.61,3.66s.93-1.95.18-2.76c-.4-.43-1-.24-1.32-.78-.07-.12-.12-.25-.12-1.3,0-1.28.06-1.4.15-1.43S46.47,171.75,46.66,172Z"/><path class="cls-5" d="M39.57,171.43a4.9,4.9,0,0,0-1,1.73,5.07,5.07,0,0,0,.24,3.71s-.73-2,.1-2.77c.44-.39,1-.14,1.39-.64.08-.11.14-.24.24-1.29.13-1.27.08-1.39,0-1.43S39.79,171.18,39.57,171.43Z"/><path class="cls-5" d="M37.3,170.16A4.77,4.77,0,0,0,36,171.72a5,5,0,0,0-.31,3.7s-.42-2.12.51-2.72c.49-.32,1,0,1.47-.43.1-.1.17-.21.43-1.23.32-1.24.29-1.37.22-1.42S37.55,170,37.3,170.16Z"/><path class="cls-2" d="M77.77,71.89c-1.45-1.22-.5-4.3.11-6.45C79.39,60,87.49,58.07,90,54.06c1.9-3.09,1.68-4.23,3.73-6.8,2.64-3.32,6.92-4,7-3.77s-3.65,1-5.95,4.48c-1.84,2.77-.59,4-2.26,6.76-2.42,4-12,7.26-13,10.49-1,3.07,1.69,6,.47,7A2,2,0,0,1,77.77,71.89Z"/><path class="cls-2" d="M84.44,78.45c-1-1.63.68-4.44,2.24-6,3-3.12,5.54-1.45,9.19-4.41,2.83-2.29,2.12-3.94,4.91-5.69,3.59-2.25,7.86-1.46,7.88-1.23s-3.79-.22-7.09,2.27c-2.66,2-1.88,3.56-4.38,5.62-3.61,3-6.86,1.07-8.86,3.78s-.4,6.24-1.87,6.74A2,2,0,0,1,84.44,78.45Z"/><path class="cls-2" d="M61.4,70.8c1.65-.92,1.29-4.12,1.09-6.35-.48-5.6-8.07-9-9.74-13.43-1.29-3.4-.86-4.47-2.39-7.38-2-3.75-6.06-5.21-6.2-5s3.39,1.71,5,5.52c1.29,3.06-.16,4,1,7.06,1.63,4.39,10.4,9.37,10.77,12.72.36,3.19-2.78,5.6-1.76,6.77A2,2,0,0,0,61.4,70.8Z"/><path class="cls-2" d="M54.66,77.14c1.32-1.36.4-4.48-.74-6.41C51.72,67,48.88,68,46,64.26c-2.2-2.89-1.13-4.33-3.42-6.69-2.95-3-7.28-3.29-7.36-3.06s3.73.68,6.35,3.88c2.11,2.58,1,3.91,2.92,6.51,2.79,3.74,6.4,2.66,7.71,5.77s-1.1,6.16.21,7A2,2,0,0,0,54.66,77.14Z"/><path class="cls-4" d="M84.88,145.93a2.37,2.37,0,0,0,.46,1.37c.9,1.1,3,.45,3.61.75,6,2.68,15.76-12.54,21.16-7.37,13.09,12.52,10.32-.2,13.91,12,3,10.2-9.06,25.65-8.7,24.6,2-5.87,9-14.57,3.76-23.57-1.37-2.35-1.42-3.66-2.37-4.57s-2.95-1.45-8.39-2.24c-2.18-.32-.32,4.76-3,7.78s-7.54,2.58-8.49,2.71c-7.32,1-.35-.5-13-4-5.3-1.49-6.13-2.48-7.21-2.57a2.91,2.91,0,0,0-1,.12c-1.88.36-6.44-3.22-6.52-7.92,0-2.71,1.41-6.28,4.23-7.09s5.61,1.65,7.19,3.08C81.05,139.5,84.62,142.72,84.88,145.93Z"/><path class="cls-4" d="M120,147.07a20.45,20.45,0,0,0-1.32,1.71,22.88,22.88,0,0,0-.86,2.25"/><path class="cls-4" d="M107.71,147.14a11.68,11.68,0,0,1-2-1.78,3.79,3.79,0,0,1-.66-3,9.76,9.76,0,0,0,.59-2.38"/><path class="cls-4" d="M83.57,153a6.3,6.3,0,0,1,1.65-5.27"/><path class="cls-4" d="M51.6,164.94c.55,1.82-.35,5.12,2,3.36,5.94-4.48,14.05-8.86,15.43-11.67,2.71-5.49,2-8.23,5.34-10.88,2.16-1.74,3.1-1.09,5.94-3,.21-.14,0-4.32,2-9.69,2.14-5.69,3.83-6.47,4.35-15s3.94-11.42,2-14c-2.15-2.86-9.19-3.19-14-.19-6.66,4.11-5.2,12-12.06,37.58-3.45,12.83-5.1,15.64-7.32,18C53.5,161.16,51.06,163.16,51.6,164.94Z"/><path class="cls-2" d="M36.39,151.74c-1.83-.47-4.07,1.89-5.17,3.84-2.15,3.78.16,5.73-1.66,10.06-1.42,3.35-3.19,3.14-4.09,6.31-1.16,4.07.79,8,1,7.91s-1.28-3.58.18-7.45c1.18-3.11,2.9-2.8,4.18-5.78,1.85-4.29-.9-6.88,1.15-9.56s5.88-2.13,6-3.68C38,152.67,37.17,151.93,36.39,151.74Z"/><path class="cls-2" d="M59.24,158.74c1.89-.07,3.59,2.71,4.25,4.85,1.3,4.14-1.36,5.56-.49,10.18.67,3.58,2.46,3.74,2.67,7,.27,4.23-2.45,7.61-2.67,7.52s2-3.23,1.38-7.32c-.49-3.29-2.24-3.34-2.86-6.52-.91-4.59,2.32-6.54.89-9.6-1.37-2.91-5.3-3.32-5-4.84A2,2,0,0,1,59.24,158.74Z"/><path class="cls-2" d="M36.4,165.28c-.79,1.71.21,4,.36,4.32,1.38,2.61,8.52,3.35,11.26,1.75a5.32,5.32,0,0,0,1-4.23C47.9,162.69,38.17,161.44,36.4,165.28Z"/><path class="cls-2" d="M34.49,164.32c-1.07,1.84.07,4.58.49,4.65,5.28.91,9.78,2.43,15.33,1.88a4.69,4.69,0,0,0,1.39-4.55C50.14,161.53,36.89,160.19,34.49,164.32Z"/><path class="cls-2" d="M37.88,155.28c-3.56,1.58-2.5,2.21-4.25,5.44-1.2,2.22-.34,3.66.2,4.15,1.9,1.75,3.7,3.11,11.77,4.25,7,1,8.48-1.65,9.69-2.67,1.9-1.6,8.56-12.75,7.91-14.63C62.1,148.65,48.12,150.73,37.88,155.28Z"/><path class="cls-3" d="M43.91,127.93a2.29,2.29,0,0,1-.74,1.24c-1.12.88-3-.2-3.69-.06-6.44,1.31-12.56-15.52-19-11.8-12.31,7-12.11,1.56-16.19,8.69C-1,135.22,7.5,153,7.38,151.9c-.67-6.16-3.07-18.6,1.46-23.81a13.34,13.34,0,0,1,12-4.32c2.18.31-.73,4.73,1.25,8.26s6.79,4.16,7.69,4.49c6.94,2.53.45-.41,13.56-1.11,5.51-.3,6.53-1.08,7.6-.94a2.53,2.53,0,0,1,1,.35c1.76.75,7-1.75,8.09-6.32.63-2.64,0-6.43-2.59-7.84s-5.83.39-7.68,1.44C49.05,122.48,44.87,124.85,43.91,127.93Z"/><path class="cls-4" d="M54.3,160.72a37.9,37.9,0,0,0-4.45,2.14c-.84.47-10-4.52-15.13-7.28-1.1-.6,1.42-1.3,5.14-3.17C46,149.33,49,147.8,50,145.49c1.63-4.15-3.57-7.6-1.78-11.08,1.6-3.1.66-2.19,2.63-5.41,1.81-2.94-2.37-12.66,6.33-14,9.22-1.4-9.8-5.28-11.34-10.29-2.15-7,.32-26.9,5.74-31,2.85-2.14,4.25-1.26,7.32-2.77C70.47,65.29,70.16,43,72.3,43.1c1.87.14-.91,17,8.31,24.53,2.86,2.34-.37,5.72,2.63,8.31,5.93,5.1,8.62,22.87,5.28,30.12-2.83,6.15-3.18,4.3-8.31,13.12-1.58,2.72-3.83,6.59-2.37,9.49,2.28,4.55,7.6,4.42,8.17,7.32.35,1.74,1.35,2.23-4.41,9.1-.65.78-2.85-3.76-2.58-2.24s-6.84-6.35-7-5.41c-.19,1.21,1.51,10.32-.73,10s-4.78,4.25-5.93,7.12C63,160.46,58,159.08,54.3,160.72Z"/><path class="cls-7" d="M50.88,166c-.36.52-.56.79-1.19.79s-.79-.06-.79-.69.62-.78,1.14-1.14C52.12,163.53,52.26,164,50.88,166Z"/><path class="cls-7" d="M55.18,163.91c-.36.51-.56.79-1.18.79s-.8-.07-.8-.69.63-.79,1.14-1.14C56.42,161.43,56.57,161.93,55.18,163.91Z"/><path class="cls-8" d="M50,152.72c-3.53-.93-4.06-2.72-7.95-3.28-2.51-.37-3.28.15-7.57,0-3.49-.12-7-.61-7-1,0-.63,7.73,1,12.32-3.33,2-1.86,2.2-3.73,4.72-4.76a8.27,8.27,0,0,1,5.59-.06,27.83,27.83,0,0,0,7.92,2.18c2.27.26-.93,5.11-1.06,6.4C56.83,150.57,58.14,154.85,50,152.72Z"/><path class="cls-9" d="M46.45,149.84c-17.8-1.06-11.86.26-11.86,5.41,0,1.77,1.71,2.32,1.84,6.46a7.93,7.93,0,0,0,2.11,4.88c1.08.77,2.64-2.22,6.86-2.77,5-.66,18-4.83,18.33-6.2.38-1.55-8-3.62-9.43-5.67C52.45,149.33,47.32,149.89,46.45,149.84Z"/><path class="cls-8" d="M62.07,156c3.56.77,4.85-.59,8.57.67,2.4.82,2.86,1.63,6.75,3.43,3.17,1.48,6.53,2.64,6.72,2.26.28-.56-7.36-2.59-9.47-8.56-.91-2.55-.27-4.32-2-6.38a8.19,8.19,0,0,0-5-2.59,24.86,24.86,0,0,1-7.38-1.68c-2.14-.81-2.18,4.91-2.65,6.12C57,150.89,53.88,154.2,62.07,156Z"/><path class="cls-9" d="M46.13,120.68c-7.72,2.92-11.1-5.7-12.76-4.51-1.91,1.37,4.64,8.09-1.43,13.58-.75.68-.25,2.8-1.51,3.69s-8.22,3.73-8.78,4.5a.09.09,0,0,0,0,.08c.09.65,7.22.24,16,.64,7.12.32,10.68.48,13.61,1.4,3.77,1.2,7.77,3.68,8.46,1.64.9-2.65,2.88-7.55,3.5-11.8.59-4-8.31-6-10.63-7.12S49.46,119.43,46.13,120.68Z"/><path class="cls-9" d="M50.52,120.4c-1.45-1-.3-1.63-.67-4-.68-4.31-14.65-2-11.9-3.79s11.6.79,11.87-1.06c.48-3.39-2.94,1-4.74-9.73C41.84,82.59,54.38,82.32,40,71.51c-2.37-1.78,14.32,2,21.64-4.35,1.71-1.5,9.48-8.14,9.78-7.52,1,2-5.08,54.66-5.08,54.66s-1.78,13.31-3.1,13.45C61.29,128,52,121.42,50.52,120.4Z"/><path class="cls-9" d="M83.24,129.47c3.43,3.23,3.89-7.52,3.39-12.81-.41-4.35,14.78-.17,12.27-2.32s-11.61-.63-11.65-2.49c-.07-3.42,3,1.36,5.89-9.09C94,99.75,88,83,100.26,74.94c4.33-2.84-11.35,1.45-20.65-8.65-1.54-1.67-7.19-7.08-7.57-6.52-1.45,2.11-7.72,66.07-8.18,68.18C62,136.57,80.17,126.57,83.24,129.47Z"/><path class="cls-9" d="M82.75,130.31c5.27,6.35,12.48.54,13.33,2.4,1,2.14-8,4.72-5.49,12.5.32,1-1.17,2.56-.52,4s5.29,7.31,5.4,8.26a.19.19,0,0,1,0,.08c-.41.51-6.39-3.37-14.19-7.37-6.34-3.24-9.51-4.87-12.52-5.51-3.87-.84-9.22-.64-8.67-2.44,1-3.13,1.65-8.36,3.32-12.32,1.58-3.75,10.17-1.06,12.76-.92S80.48,127.57,82.75,130.31Z"/></g></g></svg>