<svg xmlns="http://www.w3.org/2000/svg" viewBox="0 0 103.43 116.01"><defs><style>.cls-1{fill:#646464;stroke:blue;stroke-width:2px;}.cls-1,.cls-5{stroke-miterlimit:10;}.cls-2{fill:#464646;}.cls-3{fill:#323232;}.cls-4{fill:blue;}.cls-5{stroke:#646464;stroke-width:0.25px;}</style></defs><g id="Capa_2" data-name="Capa 2"><g id="Capa_11" data-name="Capa 11"><path class="cls-1" d="M1,32.11V83.9a5.16,5.16,0,0,0,2.6,4.48l45.56,26a5.17,5.17,0,0,0,5.11,0l45.56-26a5.18,5.18,0,0,0,2.6-4.48V32.11a5.18,5.18,0,0,0-2.6-4.48L54.27,1.68a5.12,5.12,0,0,0-5.11,0L3.6,27.63A5.16,5.16,0,0,0,1,32.11Z"/><path class="cls-2" d="M43.11,83.22c-2.25-1.43-5.48-4.51-5.06-7.59.1-.7.34-1.12,2.86-4.52,3.71-5,3.48-4.47,4-5.28,2.66-4.41,1.91-7.1,4.07-8,1.78-.76,3.82.4,4.07.55,2.48,1.46,1.74,3.87,4.62,8,1.78,2.56,2.43,2.18,3.08,4,.94,2.53-.26,3.57.44,7.27.52,2.67,1.36,3.28.89,4.4-.36.83-1.35,1.74-5.62,2.31C50.72,85.08,46.88,85.6,43.11,83.22Z"/><path class="cls-3" d="M46.34,80.82c-1.8-1.13-4.39-3.6-4.05-6.07.08-.55.27-.89,2.29-3.61,3-4,2.78-3.58,3.17-4.22,2.13-3.54,1.52-5.69,3.26-6.43a4,4,0,0,1,3.25.44c2,1.17,1.39,3.1,3.7,6.43,1.42,2,1.94,1.74,2.46,3.17.75,2-.21,2.85.36,5.81.41,2.13,1.08,2.62.7,3.52-.28.66-1.08,1.39-4.49,1.84C52.43,82.32,49.36,82.73,46.34,80.82Z"/><path d="M61.35,79c-.11-.37-.22-.78-.32-1.28-.7-3.7.5-4.74-.44-7.26-.65-1.79-1.3-1.41-3.08-4a17.93,17.93,0,0,1-2-3.74,2.62,2.62,0,0,0-1.79,0c-1.39.6-.9,2.32-2.61,5.14-.31.52-.16.19-2.53,3.38-1.61,2.18-1.77,2.45-1.83,2.89-.27,2,1.79,3.95,3.24,4.86,2.41,1.52,4.87,1.19,8.52.7A8.85,8.85,0,0,0,61.35,79Z"/><path class="cls-4" d="M42.74,81.81c-.1-.88,2-2,3.64-3,.88-.5,9.26-2.25,10.31-2.4A14.82,14.82,0,0,1,61,76.27c1.52,7.28,0,7.83-4.76,6.45C53.49,81.9,43,83.86,42.74,81.81Z"/><path class="cls-4" d="M97.21,87.93C97.21,93.37,77.47,99,53.11,99S9,93.37,9,87.93s19.74-9.86,44.09-9.86S97.21,82.49,97.21,87.93Z"/><path class="cls-2" d="M14.16,30.74c-.73,2.57,1.69,3.8,3.17,9.3,1.06,4,.66,6.52,1,6.53.58,0-.51-8.49,1.58-17,.22-.9.6-2.31,0-2.76C18.88,26,15,27.91,14.16,30.74Z"/><path class="cls-2" d="M61.24,19.27c-.56.26,0,1.8.79,7.91,0,0,.57,4.27.73,7.78.05,1,.06,1.72.06,1.72,0,2.13-.09,3,0,3s1.16-4,1.78-8.7c.77-5.78.36-7.52-.39-8.9C63.36,20.47,61.86,19,61.24,19.27Z"/><path class="cls-2" d="M69,33.71c-.5.13.08,3,.79,11.08.58,6.54.47,7.88.8,7.91.7.06.89-7.32,1.38-12.46C72.26,36.74,69.52,33.56,69,33.71Z"/><path d="M58,99.05c-1.38-1.92,2.89-5,5-13.45,1.47-5.82.85-10,1.45-10s.69,4.64,2.77,12.79c1.28,5,2.08,6.44,1.19,8.17C66.58,100.13,59.52,101.14,58,99.05Z"/><path d="M21.61,92.72c.34-1.18.83-2.86,1.45-4.88C24.25,84,24.67,82.93,25,83s.26,1.28,1.06,3.43c.89,2.42,1.76,2.7,1.71,4.09a3.68,3.68,0,0,1-2,3.16A3.79,3.79,0,0,1,21.61,92.72Z"/><path class="cls-5" d="M99.82,27.63,54.26,1.68a5.1,5.1,0,0,0-5.1,0L3.6,27.63A5.16,5.16,0,0,0,1,32.11V83.9a5.16,5.16,0,0,0,2.6,4.48l45.56,26a5.15,5.15,0,0,0,5.1,0l45.56-26a5.17,5.17,0,0,0,2.61-4.48V32.11A5.17,5.17,0,0,0,99.82,27.63ZM72.55,64.51c-.21.9-4.92,12.36-4.12,14.54.58,1.57,0,3-1.08,5.84-1.19,3-4.95,11-6.66,11.44-1.89.51-3.89-1-5.64-2.38-.9-.69-1.78-7.36-2.47-8.57s-.71-1.91-1.09-4.94c-.59-4.69-.72-5.24-.89-5.24s-.42.85-1.29,5c-.83,4-.82,4.06-1,4.45S46.44,95,42.78,95.93a5,5,0,0,1-3.16-.1,4.63,4.63,0,0,1-2.42-2.57c-.32-.55-.3-7.93-.6-9.61a36.83,36.83,0,0,1-.74-6c-.07-2-.62-2.4-1.28-5-1.38-5.42-.5-9.51-.89-9.49-1.29,0-1.08,2.77-1.29,5.93-.29,4.51-.5,5.11-1.48,7.17-1.65,3.48-4.82,11.92-5.44,13.11-.44.82-1.19.36-2.87.89-2.63.82-2.77,1.89-4,1.78-1-.1-2-1.65-3.95-4.75-1.64-2.62-1.89-3.53-1.88-4.45,0-1.48,1.37-2.06.49-2.67-1.93-1.33-2.57-11.47-3.51-8.88-3.86,10.66-2,2.18-1.83.28.12-1.14-1.51-1.22-.81-3.27a21.32,21.32,0,0,0,1-4.45,9.2,9.2,0,0,0-.1-4.15c-.61-1.88-1.56-1.71-2-3.36-.3-1.18,2-2.37,2.59-4.75.44-1.74.6-1.71.8-2.87a11.57,11.57,0,0,0,0-4.15c-.54-2.65-1.81-2.89-1.59-4.36s2-2.93,3.46-3.36c.88-.26,1.23-.07,3.27-.49a11.7,11.7,0,0,0,2-.5c2.34-1,2.58-3.19,3.75-3.16,1,0,1.74,1.67,2.18,2.67C23.6,37.81,23.33,40,23.6,40s.65-2.47.79-3.37c.36-2.36.24-2.78.69-3.26,1-1.06,3.18-.71,4.45-.2a3.72,3.72,0,0,1,2.62,2.92c.78,1.81,1.76,4.4,1.63,6.58-.23,4.17-1.28,4.81-1.18,8.11.08,2.89-.07,5.77.59,5.44.3-.15.37-1.13,1.58-5.74,1-3.76,1-4.59,1.34-5.14,1.37-2.51,2.22-1.14,3.81-4,1.08-1.94-1.14-3.3-.2-5.14.86-1.69.63-6.89,3.26-11.07.7-1.1-.7-1.43-.29-3.16.79-3.36,1.58-2,2.57-2.28,2-.57,2.77.76,3.35,1.19a8.6,8.6,0,0,1,3,5.24,53.91,53.91,0,0,1,1.19,14.43c-.12,2.92.2,8.08,1.82,8.21.35,0,1.21-4,1.35-6.43.27-4.67.79-4.54.69-7.12s-.64-3.18-.3-5.44c.19-1.21.44-6.77,1.49-7.16a2.53,2.53,0,0,1,2.57.89c1.1,1.28,3.8,2.86,4.61,4.95.41,1,.34,5.31,1.92,6.73,2.68,2.41,3.23,6.58,3.85,9.43a55.9,55.9,0,0,1,.89,7c.86,8.58.52,6.71.7,7.81C72.67,61.37,73,62.68,72.55,64.51ZM96.29,84.2c-.25.43-1.32,2.33-2.37,2.17s-1.38-1.77-2-4c-.84-3.09-.87-5.12-1.09-5.15-.79-.1-.66,3.21-.79,6.43a7.15,7.15,0,0,1-1.59,4.45c-.89,1.49-1.83,2.75-3.26,2.28-.9-.3-1.2-1.15-2.37-3.66-2-4.27-2-3.65-2.57-5.24-1.53-4-.6-5.15-1.88-12.57-.61-3.54-.84-3.35-1-5.34-.24-3.15-.69-3.95-.51-8.9.14-3.79-.16-3.68.1-6.23.38-3.59,2.19-16.12,1.1-20-.33-1.17,2.59,2.42,3.27,4.85,1.28,4.58.59,9.74,1.08,9.69,1-.1,1.3-.88,1.29-4.94,0-4.94.68-6.76,1.7-7.72,1.22-1.13,2.26.32,2.85.6a10.38,10.38,0,0,1,4,3.46c2.55,3.48,3.16,7.1,3.65,10.19.57,3.54,1,6.56.1,10.28-.74,2.92-1.83,4.23-1.58,7,.18,2,.83,2.18,1.78,5,1.08,3.23,1.11,5.88,1.19,11.17C97.41,80.63,97.31,82.4,96.29,84.2Z"/></g></g></svg>