<svg xmlns="http://www.w3.org/2000/svg" viewBox="0 0 103.43 161.05"><defs><style>.cls-1,.cls-2,.cls-3,.cls-4{fill:none;stroke:#004000;stroke-miterlimit:10;}.cls-1{stroke-width:2px;}.cls-3{stroke-width:0.5px;}.cls-4{stroke-width:0.25px;}</style></defs><g id="Capa_2" data-name="Capa 2"><g id="Capa_7" data-name="Capa 7"><path class="cls-1" d="M1,32.11V83.9a5.16,5.16,0,0,0,2.6,4.48l45.56,26a5.17,5.17,0,0,0,5.11,0l45.56-26a5.18,5.18,0,0,0,2.6-4.48V32.11a5.18,5.18,0,0,0-2.6-4.48L54.27,1.68a5.12,5.12,0,0,0-5.11,0L3.6,27.63A5.16,5.16,0,0,0,1,32.11Z"/><path class="cls-2" d="M50.51,45.16c.31.28,1,.19,1.42.2a3.55,3.55,0,0,0,1.74-.25"/><path class="cls-2" d="M34.81,44.18s-.57-.11-6.53,1a1.45,1.45,0,0,0-1.09,2c3.53,8.47,5.33,14.39,8.9,22.84"/><path class="cls-2" d="M69.44,44.39l6.87,1A1.31,1.31,0,0,1,77.4,47l-.07.42"/><path class="cls-2" d="M44.42,90.9c-.24-.26-.53-.52-.53-.52-.23-.2-.43-.36-.57-.47l-2.07-1.54a2.67,2.67,0,0,0-2-.5l-.77.13c-1.12.43-1.89,1.83-2.45,2.74a3.33,3.33,0,0,0,1,4.8,8.73,8.73,0,0,0,6.29.9c1-.32,2.27-.71,2.62-1.74C46.47,93.14,44.6,91.08,44.42,90.9Z"/><path class="cls-2" d="M52.16,30.41s1.94-5.66,3.62-5.69,3.38,3.61,3.5,5.16c.29,3.76-4,11.77-4,11.77l10.16-2s-2.17-15.82-3.53-19.43c-1-2.63-7.46-8-9.71-9.7-2.25,1.69-8.72,7.07-9.71,9.7-1.36,3.61-3.53,19.43-3.53,19.43l10.16,2s-4.33-8-4-11.77c.12-1.55,1.94-5.18,3.5-5.16S52.16,30.41,52.16,30.41Z"/><polygon class="cls-2" points="46.14 85.56 42.39 85.16 36.2 79.63 33.81 82.06 42.82 89.11 50.47 97.62 52.69 94.9 46.79 89.27 46.14 85.56"/><line class="cls-3" x1="46.14" y1="85.56" x2="98.42" y2="33.02"/><path class="cls-2" d="M42.51,84.85l52.2-50.34a1.88,1.88,0,0,1,.58-.38L99,32.46,97.71,35.9,46.94,89.43"/><circle class="cls-2" cx="35.63" cy="98.13" r="2.21"/><circle class="cls-4" cx="44.8" cy="44.01" r="1.22"/><circle class="cls-4" cx="46.48" cy="44.99" r="1.22"/><circle class="cls-4" cx="48.3" cy="45.84" r="1.22"/><circle class="cls-4" cx="46.61" cy="47" r="1.22"/><circle class="cls-4" cx="44.83" cy="45.91" r="1.22"/><circle class="cls-4" cx="46.38" cy="42.73" r="1.22"/><circle class="cls-4" cx="44.67" cy="41.95" r="1.22"/><circle class="cls-4" cx="42.69" cy="41.56" r="1.22"/><circle class="cls-4" cx="42.89" cy="43.37" r="1.22"/><circle class="cls-4" cx="41.41" cy="44.79" r="1.22"/><circle class="cls-4" cx="42.99" cy="45.18" r="1.22"/><circle class="cls-4" cx="41.27" cy="42.81" r="1.22"/><circle class="cls-4" cx="39.56" cy="43.4" r="1.22"/><circle class="cls-4" cx="48.16" cy="43.04" r="1.22"/><circle class="cls-4" cx="49.55" cy="44.49" r="1.22"/><circle class="cls-4" cx="41.74" cy="46.67" r="1.22"/><circle class="cls-4" cx="43.52" cy="47.2" r="1.22"/><circle class="cls-4" cx="37.6" cy="43.64" r="1.22"/><circle class="cls-4" cx="36.02" cy="44.43" r="1.22"/><circle class="cls-4" cx="39.26" cy="45.1" r="1.22"/><circle class="cls-4" cx="44.94" cy="48.14" r="1.22"/><circle class="cls-4" cx="59.52" cy="44.03" r="1.22"/><circle class="cls-4" cx="57.84" cy="45" r="1.22"/><circle class="cls-4" cx="56.03" cy="45.86" r="1.22"/><circle class="cls-4" cx="57.71" cy="47.01" r="1.22"/><circle class="cls-4" cx="59.49" cy="45.92" r="1.22"/><circle class="cls-4" cx="57.94" cy="42.74" r="1.22"/><circle class="cls-4" cx="59.66" cy="41.97" r="1.22"/><circle class="cls-4" cx="61.63" cy="41.57" r="1.22"/><circle class="cls-4" cx="61.44" cy="43.39" r="1.22"/><circle class="cls-4" cx="62.92" cy="44.8" r="1.22"/><circle class="cls-4" cx="61.34" cy="45.2" r="1.22"/><circle class="cls-4" cx="63.05" cy="42.83" r="1.22"/><circle class="cls-4" cx="64.77" cy="43.42" r="1.22"/><circle class="cls-4" cx="56.16" cy="43.06" r="1.22"/><circle class="cls-4" cx="54.78" cy="44.51" r="1.22"/><circle class="cls-4" cx="62.59" cy="46.68" r="1.22"/><circle class="cls-4" cx="60.81" cy="47.21" r="1.22"/><circle class="cls-4" cx="66.73" cy="43.65" r="1.22"/><circle class="cls-4" cx="68.31" cy="44.44" r="1.22"/><circle class="cls-4" cx="65.07" cy="45.11" r="1.22"/><path class="cls-4" d="M60.6,48.15a1.22,1.22,0,0,0-1.22-1.22,1.46,1.46,0,0,0-1.48,1.92"/><line class="cls-2" x1="42.68" y1="20.31" x2="61.99" y2="20.31"/><line class="cls-2" x1="48.54" y1="24.72" x2="42.19" y2="22.24"/><line class="cls-2" x1="55.78" y1="24.72" x2="62.09" y2="22.04"/><line class="cls-4" x1="52.16" y1="10.51" x2="52.16" y2="20.11"/><path class="cls-2" d="M33.48,63.18l-4,9.9a5.53,5.53,0,0,0,.68,5.54l7.21,9.71"/><path class="cls-2" d="M27.29,45.94l-8,27.57c-.41,1.09-1.3,5.6-.94,7.07a2.71,2.71,0,0,0,1,1.48L32,98.65l4-4.77"/><circle class="cls-4" cx="29.73" cy="64.5" r="1.26"/><circle class="cls-4" cx="24.44" cy="61.55" r="1.26"/><circle class="cls-4" cx="26.17" cy="62.52" r="1.26"/><circle class="cls-4" cx="27.91" cy="63.5" r="1.26"/><circle class="cls-4" cx="28.86" cy="66.22" r="1.26"/><circle class="cls-4" cx="23.56" cy="63.27" r="1.26"/><circle class="cls-4" cx="25.29" cy="64.24" r="1.26"/><circle class="cls-4" cx="27.03" cy="65.22" r="1.26"/><circle class="cls-4" cx="27.85" cy="67.92" r="1.26"/><circle class="cls-4" cx="29.58" cy="68.89" r="1.26"/><path class="cls-4" d="M30.7,71a1.26,1.26,0,0,1-.48-1.71c.34-.61.84-1,1.45-.64"/><path class="cls-4" d="M23.65,65.59a1.26,1.26,0,0,1-1.71.47,1.18,1.18,0,0,1-.37-1.67,1.16,1.16,0,0,1,1.61-.52A1.27,1.27,0,0,1,23.65,65.59Z"/><circle class="cls-4" cx="24.29" cy="65.94" r="1.26"/><circle class="cls-4" cx="26.03" cy="66.92" r="1.26"/><circle class="cls-4" cx="26.97" cy="69.64" r="1.26"/><circle class="cls-4" cx="28.7" cy="70.62" r="1.26"/><path class="cls-4" d="M29.82,72.69a1.26,1.26,0,0,1,1.24-2.19"/><path class="cls-4" d="M22.07,65.42a1.36,1.36,0,0,1,.71,1.89,1.27,1.27,0,0,1-1.72.48"/><circle class="cls-4" cx="23.41" cy="67.66" r="1.26"/><circle class="cls-4" cx="25.15" cy="68.65" r="1.26"/><circle class="cls-4" cx="25.98" cy="71.28" r="1.26"/><circle class="cls-4" cx="27.71" cy="72.25" r="1.26"/><path class="cls-4" d="M28.83,74.33a1.26,1.26,0,0,1,1.24-2.19"/><path class="cls-4" d="M21.31,67.23a1.26,1.26,0,1,1-1.24,2.19"/><circle class="cls-4" cx="22.42" cy="69.3" r="1.26"/><circle class="cls-4" cx="24.16" cy="70.28" r="1.26"/><circle class="cls-4" cx="25.11" cy="73" r="1.26"/><circle class="cls-4" cx="26.83" cy="73.97" r="1.26"/><path class="cls-4" d="M29.39,75.85c-.34.61-.83.54-1.44.2a1.26,1.26,0,0,1,1.24-2.19"/><path class="cls-4" d="M20.43,69a1.27,1.27,0,0,1,.48,1.72,1.11,1.11,0,0,1-1.33.65"/><circle class="cls-4" cx="21.54" cy="71.02" r="1.26"/><circle class="cls-4" cx="23.28" cy="72" r="1.26"/><circle class="cls-4" cx="24.1" cy="74.7" r="1.26"/><circle class="cls-4" cx="25.83" cy="75.68" r="1.26"/><circle class="cls-4" cx="27.57" cy="76.66" r="1.26"/><circle class="cls-4" cx="20.53" cy="72.72" r="1.26"/><circle class="cls-4" cx="22.27" cy="73.7" r="1.26"/><circle class="cls-4" cx="23.22" cy="76.42" r="1.26"/><circle class="cls-4" cx="24.95" cy="77.4" r="1.26"/><circle class="cls-4" cx="26.69" cy="78.38" r="1.26"/><path class="cls-4" d="M19.87,73c1.35.53,1.22,1.5.88,2.1a1.25,1.25,0,0,1-1.71.48"/><circle class="cls-4" cx="21.4" cy="75.43" r="1.26"/><path class="cls-4" d="M28,48.4c-.34.61-.79.46-1.39.12"/><path class="cls-4" d="M28.48,51.15a1.24,1.24,0,0,1-1.2,0,1.25,1.25,0,0,1-.48-1.71,1.16,1.16,0,0,1,1.13-.65"/><path class="cls-4" d="M26.18,50.32a1.24,1.24,0,0,1-.38,1.73"/><circle class="cls-4" cx="27.02" cy="51.82" r="1.26"/><circle class="cls-4" cx="26.03" cy="53.46" r="1.26"/><circle class="cls-4" cx="27.77" cy="54.44" r="1.26"/><path class="cls-4" d="M25.25,54a1.25,1.25,0,1,1-.73,2.4"/><circle class="cls-4" cx="26.89" cy="56.16" r="1.26"/><circle class="cls-4" cx="27.71" cy="58.86" r="1.26"/><path class="cls-4" d="M24.76,55.79A1.26,1.26,0,0,1,23.53,58"/><circle class="cls-4" cx="25.88" cy="57.86" r="1.26"/><circle class="cls-4" cx="26.83" cy="60.58" r="1.26"/><circle class="cls-4" cx="28.56" cy="61.56" r="1.26"/><path class="cls-4" d="M23.71,57.47a1.26,1.26,0,0,1-.9,2.35"/><circle class="cls-4" cx="25.04" cy="59.54" r="1.26"/><circle class="cls-4" cx="25.28" cy="81.55" r="1.26"/><circle class="cls-4" cx="26.87" cy="80.38" r="1.26"/><circle class="cls-4" cx="28.48" cy="79.19" r="1.26"/><circle class="cls-4" cx="22.01" cy="83.99" r="1.26"/><circle class="cls-4" cx="23.62" cy="82.81" r="1.26"/><circle class="cls-4" cx="26.49" cy="83.06" r="1.26"/><circle class="cls-4" cx="28.08" cy="81.89" r="1.26"/><circle class="cls-4" cx="29.69" cy="80.7" r="1.26"/><circle class="cls-4" cx="23.22" cy="85.5" r="1.26"/><circle class="cls-4" cx="24.83" cy="84.31" r="1.26"/><circle class="cls-4" cx="27.62" cy="84.67" r="1.26"/><circle class="cls-4" cx="29.22" cy="83.5" r="1.26"/><circle class="cls-4" cx="30.83" cy="82.32" r="1.26"/><circle class="cls-4" cx="24.35" cy="87.11" r="1.26"/><circle class="cls-4" cx="25.96" cy="85.93" r="1.26"/><circle class="cls-4" cx="28.83" cy="86.18" r="1.26"/><circle class="cls-4" cx="30.43" cy="85.01" r="1.26"/><circle class="cls-4" cx="32.04" cy="83.83" r="1.26"/><circle class="cls-4" cx="25.56" cy="88.62" r="1.26"/><circle class="cls-4" cx="27.17" cy="87.44" r="1.26"/><circle class="cls-4" cx="29.92" cy="87.76" r="1.26"/><circle class="cls-4" cx="31.51" cy="86.58" r="1.26"/><circle class="cls-4" cx="33.12" cy="85.4" r="1.26"/><circle class="cls-4" cx="26.65" cy="90.2" r="1.26"/><circle class="cls-4" cx="28.26" cy="89.01" r="1.26"/><circle class="cls-4" cx="31.13" cy="89.27" r="1.26"/><circle class="cls-4" cx="32.72" cy="88.09" r="1.26"/><circle class="cls-4" cx="34.33" cy="86.91" r="1.26"/><circle class="cls-4" cx="27.86" cy="91.7" r="1.26"/><circle class="cls-4" cx="29.47" cy="90.52" r="1.26"/><circle class="cls-4" cx="32.26" cy="90.88" r="1.26"/><circle class="cls-4" cx="33.86" cy="89.71" r="1.26"/><circle class="cls-4" cx="35.47" cy="88.52" r="1.26"/><circle class="cls-4" cx="28.99" cy="93.32" r="1.26"/><circle class="cls-4" cx="30.6" cy="92.14" r="1.26"/><circle class="cls-4" cx="33.47" cy="92.39" r="1.26"/><path class="cls-4" d="M35.82,92.32A1.58,1.58,0,0,1,34.06,92a1.26,1.26,0,1,1,2-1.49"/><path class="cls-4" d="M35.67,90.78a1.32,1.32,0,0,1,.52-2"/><circle class="cls-4" cx="30.2" cy="94.83" r="1.26"/><circle class="cls-4" cx="31.81" cy="93.65" r="1.26"/><circle class="cls-4" cx="24.98" cy="79.47" r="1.26"/><circle class="cls-4" cx="23.19" cy="78.47" r="1.26"/><circle class="cls-4" cx="21.36" cy="77.47" r="1.26"/><circle class="cls-4" cx="19.6" cy="76.52" r="1.26"/><circle class="cls-4" cx="19.64" cy="78.67" r="1.26"/><circle class="cls-4" cx="21.42" cy="79.69" r="1.26"/><circle class="cls-4" cx="23.24" cy="80.62" r="1.26"/><circle class="cls-4" cx="21.46" cy="81.83" r="1.26"/><circle class="cls-4" cx="19.69" cy="80.79" r="1.26"/><path class="cls-4" d="M35.13,95c-.54.38-.61.42-1.22.08a1.26,1.26,0,0,1-.47-1.72,1.37,1.37,0,0,1,2-.38"/><circle class="cls-4" cx="32.96" cy="95.3" r="1.26"/><circle class="cls-4" cx="31.42" cy="96.43" r="1.26"/><path class="cls-4" d="M32,99.15A1.26,1.26,0,1,1,33.25,97"/><path class="cls-4" d="M33.61,97.93a1.26,1.26,0,0,1,1.23-2.19"/><circle class="cls-4" cx="30.68" cy="67.12" r="1.26"/><circle class="cls-4" cx="31.67" cy="65.24" r="1.26"/><circle class="cls-4" cx="30.38" cy="62.5" r="1.26"/><circle class="cls-4" cx="32.13" cy="63.26" r="1.26"/><circle class="cls-4" cx="29.43" cy="60.03" r="1.26"/><circle class="cls-4" cx="28.47" cy="57.23" r="1.26"/><circle class="cls-4" cx="29.49" cy="55.58" r="1.26"/><circle class="cls-4" cx="30.32" cy="58.15" r="1.26"/><circle class="cls-4" cx="31.11" cy="60.72" r="1.26"/><circle class="cls-4" cx="28.54" cy="52.88" r="1.26"/><path class="cls-2" d="M80.4,54.46a32,32,0,0,1,22.32,24.22"/><path class="cls-2" d="M39.48,82.14c2.15-15.55,15.83-28.95,32-28.95a33.17,33.17,0,0,1,3.61.2"/><path class="cls-2" d="M56,113.29c-6.33-3.69-12.33-11-14.41-16.75"/><circle class="cls-2" cx="71.45" cy="85.11" r="7.98"/><path class="cls-2" d="M71.45,63.54a4,4,0,1,1-4,4"/><path class="cls-2" d="M68.63,105.72a4,4,0,0,1,2.82-6.81,4,4,0,0,1,3.81,2.79,4,4,0,0,1,.18,1.2"/><path class="cls-2" d="M54.47,81.3a4,4,0,1,1-4.93,5.18"/><circle class="cls-2" cx="88.66" cy="85.11" r="3.99"/><path class="cls-2" d="M42.34,110a33.42,33.42,0,0,1-6.22-10"/><path class="cls-2" d="M85.22,49.36a38.32,38.32,0,0,1,17.3,13.35"/><path class="cls-2" d="M33.22,82.69A38.34,38.34,0,0,1,80.6,47.91"/><path class="cls-2" d="M67.51,102.08A17.43,17.43,0,0,1,54.42,88.77"/><path class="cls-2" d="M88.4,89.12a17.43,17.43,0,0,1-13,12.95"/><path class="cls-2" d="M75.42,68.15a17.46,17.46,0,0,1,13,13"/><line class="cls-3" x1="28.77" y1="50.65" x2="54.75" y2="50.65"/><line class="cls-3" x1="32.92" y1="60.65" x2="41.96" y2="60.65"/><line class="cls-3" x1="39.26" y1="46.32" x2="39.26" y2="64.04"/><path class="cls-2" d="M53.67,122.94v21.6a5.16,5.16,0,0,0,2.6,4.48l19.06,10.85a5.15,5.15,0,0,0,5.1,0L99.49,149a5.16,5.16,0,0,0,2.6-4.48v-21.6a5.16,5.16,0,0,0-2.6-4.48L80.43,107.61a5.15,5.15,0,0,0-5.1,0L56.27,118.46A5.16,5.16,0,0,0,53.67,122.94Z"/></g></g></svg>