<svg xmlns="http://www.w3.org/2000/svg" viewBox="0 0 103.43 160.53"><defs><style>.cls-1,.cls-2,.cls-3{fill:none;stroke:#8b008b;stroke-miterlimit:10;}.cls-1{stroke-width:2px;}.cls-3{stroke-width:0.5px;}</style></defs><g id="Capa_2" data-name="Capa 2"><g id="Capa_7" data-name="Capa 7"><path class="cls-1" d="M1,32.11V83.9a5.16,5.16,0,0,0,2.6,4.48l45.56,26a5.17,5.17,0,0,0,5.11,0l45.56-26a5.18,5.18,0,0,0,2.6-4.48V32.11a5.18,5.18,0,0,0-2.6-4.48L54.27,1.68a5.12,5.12,0,0,0-5.11,0L3.6,27.63A5.16,5.16,0,0,0,1,32.11Z"/><path class="cls-2" d="M54.06,122.42V144a5.18,5.18,0,0,0,2.6,4.48l19.06,10.85a5.15,5.15,0,0,0,5.1,0L99.88,148.5a5.16,5.16,0,0,0,2.6-4.48v-21.6a5.13,5.13,0,0,0-2.6-4.47L80.82,107.09a5.15,5.15,0,0,0-5.1,0L56.66,118A5.15,5.15,0,0,0,54.06,122.42Z"/><polyline class="cls-2" points="37 107.61 40.17 90.55 40.24 83.03 39.19 78.29"/><path class="cls-2" d="M52.6,65.13a45.94,45.94,0,0,1-9.51,4.12c-2,.55-3.35,1.26-4.1-3.08L36.94,52.31"/><path class="cls-2" d="M57.85,73s-21.13,7.51-24.22,5.27c-1.14-.82-6.4-32.34-5.71-32.66C30.65,44.36,41.72,43,41.72,43"/><path class="cls-2" d="M50.18,46.84,59.83,60c2.47,3.26,5.6-8.47,5.6-8.47"/><path class="cls-2" d="M50,44.16c-1-1.79-3.8-5.55-6-4.14-3.21,2.07-2.17,6.58-1.21,8.36a3.32,3.32,0,0,0,4.73,1.26C49.3,48.67,50.94,45.94,50,44.16Z"/><polyline class="cls-2" points="69.04 105.89 63.67 90.2 63.48 82.64 71.1 59.69"/><path class="cls-2" d="M50.05,44.45c6.6.83,15.1-6.55,15.57-13.52l-.08-2A11.2,11.2,0,0,0,60,21.13l-1.54-.78a11.11,11.11,0,0,0-8.88-.12l-2,1.26c-4.74,3.89-6.16,13.13-3.33,18.66"/><path class="cls-2" d="M57.05,42.88l16.52,2.87c1.6.3,3.46.49,2,3.48C71.44,57.82,64.77,79,59.15,73.9c-3.06-2.79-15.5-24.44-15.5-24.44"/><line class="cls-2" x1="40.24" y1="83.13" x2="63.19" y2="83.03"/><line class="cls-2" x1="40.24" y1="89.26" x2="63.7" y2="89.13"/><line class="cls-2" x1="50.13" y1="83.33" x2="50.13" y2="88.77"/><line class="cls-2" x1="53.97" y1="83.43" x2="53.97" y2="88.87"/><line class="cls-2" x1="50.03" y1="86.1" x2="53.89" y2="86.1"/><line class="cls-2" x1="52.07" y1="89.17" x2="52" y2="114.72"/><line class="cls-2" x1="52.11" y1="74.92" x2="52.09" y2="82.84"/><line class="cls-3" x1="47.14" y1="76.31" x2="47.14" y2="83.03"/><line class="cls-3" x1="46.97" y1="89.23" x2="47.14" y2="112.44"/><line class="cls-3" x1="56.81" y1="73.51" x2="56.81" y2="83.23"/><line class="cls-3" x1="56.64" y1="89.43" x2="56.81" y2="112.64"/><line class="cls-3" x1="46.88" y1="55.21" x2="47.05" y2="68.11"/><line class="cls-3" x1="56.67" y1="42.9" x2="56.85" y2="55.94"/><line class="cls-2" x1="52.21" y1="63.91" x2="52.21" y2="65.5"/><line class="cls-2" x1="52.28" y1="44.34" x2="52.26" y2="49.41"/><path class="cls-2" d="M25.8,14.59a5.82,5.82,0,0,0,5.74,2.51c2.34-.46,2.6-2.8,5.14-3.16,2.09-.3,2.6,1.18,4.75,1C44,14.69,46.74,12.29,47,9.78c.26-2.9-3-4.83-2.18-6.13"/><circle class="cls-3" cx="37.7" cy="18.68" r="1.58"/><circle class="cls-3" cx="41.36" cy="22.08" r="1.27"/></g></g></svg>