<svg xmlns="http://www.w3.org/2000/svg" viewBox="0 0 103.43 160.53"><defs><style>.cls-1,.cls-2,.cls-3{fill:none;stroke:blue;stroke-miterlimit:10;}.cls-1{stroke-width:2px;}.cls-3{stroke-width:0.5px;}</style></defs><g id="Capa_2" data-name="Capa 2"><g id="Capa_7" data-name="Capa 7"><path class="cls-1" d="M1,32.11V83.9a5.16,5.16,0,0,0,2.6,4.48l45.56,26a5.17,5.17,0,0,0,5.11,0l45.56-26a5.18,5.18,0,0,0,2.6-4.48V32.11a5.18,5.18,0,0,0-2.6-4.48L54.27,1.68a5.12,5.12,0,0,0-5.11,0L3.6,27.63A5.16,5.16,0,0,0,1,32.11Z"/><path class="cls-2" d="M54.07,122.42V144a5.16,5.16,0,0,0,2.6,4.48l19.06,10.85a5.15,5.15,0,0,0,5.1,0L99.89,148.5a5.18,5.18,0,0,0,2.6-4.48v-21.6a5.15,5.15,0,0,0-2.6-4.47L80.83,107.09a5.15,5.15,0,0,0-5.1,0L56.67,118A5.13,5.13,0,0,0,54.07,122.42Z"/><path class="cls-2" d="M24.74,59.56,22.55,71.83A6.28,6.28,0,0,0,23.23,76l6.88,12.58"/><line class="cls-2" x1="27.02" y1="46.86" x2="25.11" y2="57.15"/><path class="cls-2" d="M35.94,68.89c.63,1.59,1.15,3.13,1.74,4.59l1.58,3a3.78,3.78,0,0,1,.36,1.09l.66,5.53a4.66,4.66,0,0,1,0,.65l-.15,13.08"/><path class="cls-2" d="M32.39,60.1c.46,1.18.82,2.27,1.28,3.45"/><path class="cls-2" d="M45.83,42.45s-11.59,1.62-17.54,2.68a1.46,1.46,0,0,0-1.1,2c1.28,3,3,7,4.5,10.72"/><path class="cls-2" d="M58,42.58l17,2.7a1.36,1.36,0,0,1,1,1.87c-3.44,8.23-7.78,20.46-11.32,28.7a6,6,0,0,0-.46,2.78l.17,2.51,1.8,9.06,2.9,15.69"/><path class="cls-2" d="M76.18,46.84,73.37,68.76a5.54,5.54,0,0,0,3.25,4.54l12.48,5"/><path class="cls-2" d="M65,74.66c.17,1.15,1.22,4.87,2.24,6a2.6,2.6,0,0,0,1.56.83l18.42,4.1a1.27,1.27,0,0,0,1.39-.49"/><path class="cls-2" d="M91.39,78c2,.06,6.71.89,6.44,3.48-.41,3.81-4.93,4.91-7,4.85a3.32,3.32,0,0,1-3.28-3.65C87.64,80.64,89.35,77.94,91.39,78Z"/><path class="cls-2" d="M42.48,43.11c.93,1.11,4.87,5.71,9,5.75,5.07.06,8.24-4.5,9.42-5.68"/><path class="cls-2" d="M38.16,88.79c.61,1.94,1.35,6.64-1.19,7.22-3.72.86-6.24-3.05-6.86-5a3.33,3.33,0,0,1,2.38-4.29C34.43,86.11,37.54,86.85,38.16,88.79Z"/><line class="cls-3" x1="6.69" y1="82.86" x2="22.26" y2="82.86"/><polyline class="cls-2" points="15.32 60.31 25.36 59.62 33.81 60.51 32.58 87.04"/><path class="cls-2" d="M54.61,60.1,47.15,82.86l5,4.53a3.45,3.45,0,0,0,5.13.11l5.48-4.64L54.61,60c-1.92-.14-7.08-2.47-10.15-3a2.63,2.63,0,0,0-.56,0l-8.39,1.21s.38-3.57-.77-3.58-.85,3.58-.85,3.58L25.51,57a2.63,2.63,0,0,0-.56,0c-3.08.5-8.23,2.83-10.15,3l-.45,1.27L6.69,82.86l5.47,4.64a3.46,3.46,0,0,0,5.14-.11l5-4.53L14.8,60.1"/><line class="cls-3" x1="62.72" y1="82.86" x2="47.15" y2="82.86"/><polyline class="cls-2" points="54.08 60.31 44.05 59.62 35.59 60.51 36.59 87.04"/><polyline class="cls-2" points="43.4 59.9 47.3 65.17 41.93 109.74"/><line class="cls-2" x1="32.14" y1="44.73" x2="41.7" y2="57.45"/><path class="cls-2" d="M38.47,43.8c1,1.22,8.44,8.76,13,8.81,5.58.06,11.64-7.51,12.94-8.81"/><path class="cls-2" d="M27,99H42.57L40.39,97.2a3.38,3.38,0,0,0-2.17-.78H31a3.42,3.42,0,0,0-2.37,1Z"/><line class="cls-2" x1="40" y1="99.11" x2="37.77" y2="107.02"/><line class="cls-3" x1="14.5" y1="82.84" x2="14.76" y2="61.47"/><line class="cls-3" x1="54.46" y1="82.79" x2="54.72" y2="61.42"/><path class="cls-2" d="M61.92,24.61c-4-7-15.27-7.15-19.41-.4C38.28,31.14,44,45,52,45S66,31.7,61.92,24.61Z"/><path class="cls-2" d="M35,44.17c1,1.22,11.28,11.88,16.52,12,6.53.1,14.82-10.47,16.12-11.77"/></g></g></svg>