<svg xmlns="http://www.w3.org/2000/svg" viewBox="0 0 103.43 160.53"><defs><style>.cls-1,.cls-2,.cls-3{fill:none;stroke:#2e8957;stroke-miterlimit:10;}.cls-1{stroke-width:2px;}.cls-3{stroke-width:0.5px;}</style></defs><g id="Capa_2" data-name="Capa 2"><g id="Capa_7" data-name="Capa 7"><path class="cls-1" d="M1,32.11V83.9a5.16,5.16,0,0,0,2.6,4.48l45.56,26a5.17,5.17,0,0,0,5.11,0l45.56-26a5.18,5.18,0,0,0,2.6-4.48V32.11a5.18,5.18,0,0,0-2.6-4.48L54.27,1.68a5.12,5.12,0,0,0-5.11,0L3.6,27.63A5.16,5.16,0,0,0,1,32.11Z"/><path class="cls-2" d="M54.06,122.42V144a5.18,5.18,0,0,0,2.6,4.48l19.06,10.85a5.15,5.15,0,0,0,5.1,0L99.88,148.5a5.16,5.16,0,0,0,2.6-4.48v-21.6a5.13,5.13,0,0,0-2.6-4.47L80.82,107.09a5.15,5.15,0,0,0-5.1,0L56.66,118A5.15,5.15,0,0,0,54.06,122.42Z"/><line class="cls-3" x1="51.84" y1="98" x2="51.85" y2="114.55"/><line class="cls-3" x1="51.81" y1="62" x2="51.83" y2="88.77"/><line class="cls-3" x1="51.8" y1="45.31" x2="51.78" y2="53.17"/><line class="cls-2" x1="40.18" y1="90.55" x2="37" y2="107.61"/><path class="cls-2" d="M45.82,42.45s-11.58,1.62-17.54,2.68a1.45,1.45,0,0,0-1.09,2c3.53,8.47,9.09,21,12.66,29.44.13.32.6,3.11.6,3.11"/><path class="cls-2" d="M27.08,46.86,24.3,75.19c-.21,1.15-.28,5.74.33,7.12.24.56,5.85,8,5.85,8"/><path class="cls-2" d="M69.15,72.55a6.18,6.18,0,0,1-1.6,5.71l-6,5.43"/><path class="cls-2" d="M77.07,55.51l-.86-8A2.76,2.76,0,0,0,75.55,46L75.49,46A2.43,2.43,0,0,0,74,45.14L58.23,42.6"/><path class="cls-2" d="M59.92,93.22a1.28,1.28,0,0,0,1.47,0l16.19-9.69a2.64,2.64,0,0,0,1.22-1.29c.61-1.38.53-6,.32-7.12L77.71,60.85"/><path class="cls-2" d="M55,87.37c-1.92.69-6.1,3-5,5.33,1.59,3.48,6.22,3.1,8.14,2.41a3.32,3.32,0,0,0,2-4.5C59.41,88.69,56.93,86.67,55,87.37Z"/><ellipse class="cls-3" cx="42.58" cy="47.11" rx="1.15" ry="1.76" transform="translate(-19.78 35.13) rotate(-37.01)"/><ellipse class="cls-3" cx="47.05" cy="51.95" rx="1.15" ry="1.76" transform="translate(-21.79 38.78) rotate(-37.01)"/><line class="cls-3" x1="43.65" y1="48.52" x2="45.81" y2="50.52"/><line class="cls-3" x1="48.33" y1="53.5" x2="50.91" y2="56.05"/><line class="cls-3" x1="41.52" y1="45.7" x2="39.51" y2="43.51"/><ellipse class="cls-3" cx="61.03" cy="47.39" rx="1.76" ry="1.15" transform="translate(-13.55 67.59) rotate(-52.99)"/><ellipse class="cls-3" cx="56.57" cy="52.22" rx="1.76" ry="1.15" transform="translate(-19.18 65.96) rotate(-52.99)"/><line class="cls-3" x1="59.97" y1="48.79" x2="57.8" y2="50.79"/><line class="cls-3" x1="55.51" y1="53.63" x2="52.69" y2="55.95"/><line class="cls-3" x1="62.09" y1="45.98" x2="64.1" y2="43.78"/><line class="cls-2" x1="66.14" y1="90.2" x2="69.04" y2="105.89"/><path class="cls-2" d="M87.73,50.65a4.35,4.35,0,1,1-1.31-6A4.35,4.35,0,0,1,87.73,50.65Z"/><circle class="cls-2" cx="46.81" cy="102.17" r="2.01"/><rect class="cls-2" x="45.21" y="98.79" width="6.46" height="1.71" rx="0.63" transform="translate(61.48 -10.38) rotate(32.69)"/><line class="cls-2" x1="50.4" y1="93.66" x2="47.42" y2="97.91"/><line class="cls-2" x1="79.21" y1="52.51" x2="54.76" y2="87.4"/><line class="cls-2" x1="53.3" y1="95.48" x2="50.43" y2="99.57"/><line class="cls-2" x1="82.1" y1="54.36" x2="58.39" y2="88.21"/><line class="cls-3" x1="51.86" y1="94.58" x2="48.74" y2="99.03"/><line class="cls-3" x1="80.67" y1="53.4" x2="57.02" y2="87.2"/><rect class="cls-2" x="78.12" y="51.85" width="6.46" height="1.71" rx="0.63" transform="translate(41.35 -35.59) rotate(32.69)"/><polygon class="cls-2" points="86.95 43.9 85.49 43.83 90.48 38.4 87.62 45.2 86.95 43.9"/><path class="cls-2" d="M79.5,50A5,5,0,0,1,78,45.89a5.12,5.12,0,0,1,3.15-3.44c1.56-.59,2.44,0,3.3-.65s.92-2.34.73-3.7"/><path class="cls-2" d="M84.53,53.13a4.92,4.92,0,0,0,4.35-.37,5.07,5.07,0,0,0,1.82-4.3c-.12-1.66-1.06-2.2-.78-3.27S91.66,43.38,93,43"/><line class="cls-2" x1="75.58" y1="46.31" x2="64.9" y2="72.91"/><path class="cls-2" d="M51.12,19.56a11.06,11.06,0,0,0-8,3.84"/><path class="cls-2" d="M61.25,24.11a11.17,11.17,0,0,0-8.41-4.54"/><path class="cls-2" d="M41.84,25.43c-3.23,7.16,2.35,19.8,10,19.88S65.23,33.14,62.21,25.86"/><polygon class="cls-2" points="61.54 26.17 61.54 23.89 61.54 19.69 63.78 23.93 61.54 26.17"/><polygon class="cls-2" points="42.81 26.17 40.58 23.93 42.81 19.69 42.81 23.96 42.81 26.17"/><line class="cls-2" x1="49.72" y1="23.93" x2="42.81" y2="23.96"/><line class="cls-2" x1="61.54" y1="23.89" x2="54.2" y2="23.93"/><polygon class="cls-2" points="51.96 26.17 49.72 23.93 51.96 16.69 54.2 23.93 51.96 26.17"/><polygon class="cls-3" points="51.78 62.09 49.54 59.85 51.78 53.61 54.02 59.85 51.78 62.09"/><line class="cls-2" x1="27.85" y1="86.99" x2="25.93" y2="100.9"/><line class="cls-2" x1="76.18" y1="84.48" x2="79.93" y2="99.52"/><circle class="cls-2" cx="35.29" cy="83.48" r="6.28"/><path class="cls-2" d="M40.4,89.56c0,2.22-2.81,5-5,5s-5-2.8-5-5,2.8,1,5,1S40.4,87.34,40.4,89.56Z"/><polygon class="cls-2" points="35.43 76.5 33.11 77.18 35.43 72.86 37.74 77.18 35.43 76.5"/></g></g></svg>