<svg xmlns="http://www.w3.org/2000/svg" viewBox="0 0 103.43 160.53"><defs><style>.cls-1,.cls-2,.cls-3{fill:none;stroke:indigo;stroke-miterlimit:10;}.cls-2{stroke-width:2px;}.cls-3{stroke-width:0.5px;}</style></defs><g id="Capa_2" data-name="Capa 2"><g id="Capa_7" data-name="Capa 7"><path class="cls-1" d="M54.06,122.42V144a5.18,5.18,0,0,0,2.6,4.48l19.06,10.85a5.15,5.15,0,0,0,5.1,0L99.88,148.5a5.16,5.16,0,0,0,2.6-4.48v-21.6a5.13,5.13,0,0,0-2.6-4.47L80.82,107.09a5.15,5.15,0,0,0-5.1,0L56.66,118A5.15,5.15,0,0,0,54.06,122.42Z"/><polyline class="cls-1" points="41.59 110.5 44.49 94.81 44.6 90.99"/><line class="cls-1" x1="49.15" y1="90.94" x2="49.15" y2="113.24"/><line class="cls-1" x1="53.9" y1="90.99" x2="53.9" y2="113.24"/><line class="cls-1" x1="39.66" y1="91.09" x2="63.2" y2="91.19"/><polyline class="cls-1" points="61.44 110.7 58.54 95 58.42 91.19"/><path class="cls-1" d="M45,42.15s-10.87,1.47-16.83,2.53a1.46,1.46,0,0,0-1.1,2c3.54,8.47,8.1,21,11.67,29.44a4.3,4.3,0,0,1,.28,1l.75,4.37,0,10-2.91,15.7"/><path class="cls-1" d="M75.82,46.22l.3,19.29c-.3,3.66,1,4,2.47,5.34l10.48,8"/><path class="cls-1" d="M67,69A10.72,10.72,0,0,0,67.26,74a2.62,2.62,0,0,0,1.21,1.29L84.67,85a1.29,1.29,0,0,0,1.47,0"/><path class="cls-1" d="M91,79.14c1.92.69,6.09,3,5,5.33-1.59,3.48-6.22,3.1-8.14,2.41a3.32,3.32,0,0,1-2-4.5C86.65,80.46,89.13,78.44,91,79.14Z"/><path class="cls-1" d="M69.1,47.71c3.37-1,5.94-1.85,6.35-2.26"/><path class="cls-1" d="M39.05,49.27c4.71,1.24,9.48,2.29,11.38,2.31,2.47,0,8.15-1.14,13.49-2.48"/><path class="cls-1" d="M27.45,45.45c.35.42,3.07,1.37,6.55,2.41"/><polyline class="cls-1" points="44.89 81.4 45.04 76.47 37.24 51.29"/><path class="cls-1" d="M32.2,60.55l-6.83,6.64a4.8,4.8,0,0,0,.92,5.25l6.47,5.65"/><path class="cls-1" d="M28.8,84.91,15.63,70.75a2.58,2.58,0,0,1-.77-1.6c-.17-1.5,12.39-23.76,12.39-23.76"/><path class="cls-1" d="M35,79.32c1.62,1.24,4.92,4.66,3.17,6.59-2.56,2.84-6.87,1.08-8.48-.16a3.32,3.32,0,0,1-.51-4.88C31.92,77.26,32.65,77.52,35,79.32Z"/><path class="cls-1" d="M56.56,21.51c-6.15-5.16-16.81-1.4-18.33,6.38-1.56,8,8.62,18.92,16.11,16.23S62.8,26.76,56.56,21.51Z"/><line class="cls-1" x1="49.08" y1="51.52" x2="49.15" y2="81.35"/><line class="cls-1" x1="53.96" y1="51.25" x2="53.9" y2="81.3"/><line class="cls-1" x1="39.76" y1="81.48" x2="63.1" y2="81.4"/><polyline class="cls-1" points="58.13 81.35 57.99 76.66 65.94 50.89"/><path class="cls-1" d="M57.85,41.84s10.91,1.53,16.87,2.59a1.46,1.46,0,0,1,1.1,2c-3.54,8.47-8.1,21-11.67,29.44a4.89,4.89,0,0,0-.29,1l-.74,4.37,0,10,2.9,15.7"/><line class="cls-1" x1="39.66" y1="86.24" x2="63" y2="86.24"/><path class="cls-2" d="M1,32.11V83.9a5.16,5.16,0,0,0,2.6,4.48l45.56,26a5.17,5.17,0,0,0,5.11,0l45.56-26a5.18,5.18,0,0,0,2.6-4.48V32.11a5.18,5.18,0,0,0-2.6-4.48L54.27,1.68a5.12,5.12,0,0,0-5.11,0L3.6,27.63A5.16,5.16,0,0,0,1,32.11Z"/><line class="cls-1" x1="24.55" y1="81.06" x2="20.4" y2="97.28"/><line class="cls-1" x1="80.46" y1="82.64" x2="85.47" y2="96.09"/><circle class="cls-1" cx="36.55" cy="48.75" r="2.64"/><circle class="cls-1" cx="66.61" cy="48.42" r="2.64"/><circle class="cls-3" cx="41.56" cy="95.96" r="1.81"/><circle class="cls-3" cx="40.18" cy="103.26" r="1.81"/><circle class="cls-3" cx="34.7" cy="56.07" r="1.81"/><circle class="cls-3" cx="37.31" cy="62.91" r="1.81"/><circle class="cls-3" cx="39.78" cy="69.44" r="1.81"/><circle class="cls-3" cx="41.96" cy="76.26" r="1.81"/><line class="cls-3" x1="30.48" y1="46.77" x2="33.78" y2="54.55"/><line class="cls-3" x1="35.36" y1="57.85" x2="36.55" y2="61.01"/><line class="cls-3" x1="37.87" y1="64.7" x2="39.05" y2="67.87"/><line class="cls-3" x1="40.37" y1="71.3" x2="41.16" y2="74.46"/><line class="cls-3" x1="41.96" y1="78.07" x2="42.09" y2="81.19"/><line class="cls-3" x1="42.35" y1="91.21" x2="41.56" y2="94.14"/><line class="cls-3" x1="41.16" y1="97.8" x2="40.18" y2="101.45"/><line class="cls-3" x1="40.18" y1="105.07" x2="39.19" y2="108.35"/><circle class="cls-3" cx="61.38" cy="96.37" r="1.81"/><circle class="cls-3" cx="62.76" cy="103.67" r="1.81"/><circle class="cls-3" cx="68.24" cy="56.48" r="1.81"/><circle class="cls-3" cx="65.63" cy="63.32" r="1.81"/><circle class="cls-3" cx="63.16" cy="69.84" r="1.81"/><circle class="cls-3" cx="60.98" cy="76.67" r="1.81"/><line class="cls-3" x1="72.46" y1="47.18" x2="69.16" y2="54.96"/><line class="cls-3" x1="67.58" y1="58.26" x2="66.39" y2="61.42"/><line class="cls-3" x1="65.07" y1="65.11" x2="63.89" y2="68.28"/><line class="cls-3" x1="62.57" y1="71.71" x2="61.78" y2="74.87"/><line class="cls-3" x1="60.98" y1="78.48" x2="60.85" y2="81.6"/><line class="cls-3" x1="60.59" y1="91.62" x2="61.38" y2="94.55"/><line class="cls-3" x1="61.78" y1="98.21" x2="62.76" y2="101.85"/><line class="cls-3" x1="62.76" y1="105.48" x2="63.75" y2="108.76"/><path class="cls-1" d="M69.07,9.79c-4.3,2.62-6.94,6.16-6.94,10.06,0,4.23,3.11,8,8.07,10.7l-6,4.48a.3.3,0,0,0,.29.51l8.59-3.65a38.72,38.72,0,0,0,14.14,2.53,38.09,38.09,0,0,0,15.22-3"/></g></g></svg>