<svg xmlns="http://www.w3.org/2000/svg" viewBox="0 0 103.43 160.53"><defs><style>.cls-1,.cls-2,.cls-3{fill:none;stroke:#500000;stroke-miterlimit:10;}.cls-1{stroke-width:2px;}.cls-3{stroke-width:0.5px;}</style></defs><g id="Capa_2" data-name="Capa 2"><g id="Capa_7" data-name="Capa 7"><path class="cls-1" d="M1,32.11V83.9a5.16,5.16,0,0,0,2.6,4.48l45.56,26a5.17,5.17,0,0,0,5.11,0l45.56-26a5.18,5.18,0,0,0,2.6-4.48V32.11a5.18,5.18,0,0,0-2.6-4.48L54.27,1.68a5.12,5.12,0,0,0-5.11,0L3.6,27.63A5.16,5.16,0,0,0,1,32.11Z"/><path class="cls-2" d="M54.06,122.42V144a5.18,5.18,0,0,0,2.6,4.48l19.06,10.85a5.15,5.15,0,0,0,5.1,0L99.88,148.5a5.16,5.16,0,0,0,2.6-4.48v-21.6a5.13,5.13,0,0,0-2.6-4.47L80.82,107.09a5.15,5.15,0,0,0-5.1,0L56.66,118A5.15,5.15,0,0,0,54.06,122.42Z"/><path class="cls-2" d="M63,30.21c.68,3.4-.17,5.35-2,8.61-2.08,3.76-5.42,6.58-9.13,6.54s-6.81-2.77-8.79-6.4c-1.76-3.22-2.57-5.14-1.94-8.55Z"/><path class="cls-2" d="M45.82,42.45s-11.58,1.62-17.54,2.68a1.45,1.45,0,0,0-1.09,2c3.53,8.47,6.51,17.16,10.08,25.62"/><path class="cls-2" d="M58.23,42.6l16.68,2.68a1.36,1.36,0,0,1,1,1.87C72.51,55.38,69.54,64.07,66,72.3"/><path class="cls-2" d="M70.51,44.46,66.07,29.85l-4.1-9C60.6,18.15,56,16.23,51.82,16.23s-8.69,1.88-10.09,4.52l-3.44,9L34,43.87l8.58,7.55c.93,1.11,4.86,5.7,9,5.75,5.08,0,8.25-4.5,9.43-5.68Z"/><polyline class="cls-2" points="37 107.61 39.9 91.91 40.19 80.66"/><polyline class="cls-2" points="67.14 106.64 63.8 90.2 63.14 80.36"/><path class="cls-2" d="M27.08,47.06,24.3,75.4c-.21,1.14-.28,5.74.33,7.12a2.56,2.56,0,0,0,1.21,1.28l16.32-3.88c.81-.18,4.89,3.87,4.89,3.87a.43.43,0,0,0,.8-.22l-.36-14.35s-13.72,4.9-13.26,3l.6-5.56"/><path class="cls-2" d="M47.72,69.79l2.74-8.26c.1-1.3.5-1.34.66-1.08h0c.57.93.26,5.07.24,6.16l-.12,8.88a2.05,2.05,0,0,1-3.12,1.72v-1Z"/><path class="cls-2" d="M76.07,47.06,78.85,75.4c.21,1.14.28,5.74-.33,7.12a2.56,2.56,0,0,1-1.21,1.28L62,79.92c-.81-.18-5.43,3.74-5.43,3.74a.43.43,0,0,1-.8-.22l.36-14.35s13.26,5,12.8,3.09l-.6-5.56"/><path class="cls-2" d="M55.89,69.66l-2.52-8.2c-.11-1.29-.5-1.34-.67-1.07h0c-.57.92-.46,5-.45,6.08l-.11,9.21c-.06,2.21,2.87,1.75,3.35.39Z"/><line class="cls-2" x1="41.77" y1="43.03" x2="49.93" y2="50.79"/><circle class="cls-2" cx="51.84" cy="51.61" r="2.05"/><line class="cls-2" x1="61.97" y1="43.08" x2="53.82" y2="50.84"/><line class="cls-2" x1="29.56" y1="83.13" x2="26.69" y2="100.74"/><line class="cls-2" x1="73.57" y1="83.13" x2="77.13" y2="100.84"/><circle class="cls-2" cx="52.02" cy="87.44" r="2.55"/><circle class="cls-2" cx="51.97" cy="95.36" r="2.13"/><circle class="cls-2" cx="51.97" cy="103.37" r="2.13"/><line class="cls-2" x1="51.94" y1="89.76" x2="51.97" y2="93.23"/><line class="cls-2" x1="51.97" y1="97.48" x2="51.97" y2="101.24"/><line class="cls-2" x1="54.12" y1="89.07" x2="63.78" y2="89.03"/><polyline class="cls-2" points="49.84 103.37 40.46 89.05 49.93 89.04"/><line class="cls-2" x1="54.09" y1="103.37" x2="63.01" y2="89.18"/><line class="cls-2" x1="54.09" y1="95.36" x2="59.82" y2="89.13"/><line class="cls-2" x1="49.84" y1="95.36" x2="43.69" y2="88.91"/><line class="cls-2" x1="53.99" y1="85.7" x2="63.42" y2="85.7"/><line class="cls-2" x1="40.11" y1="85.7" x2="50.13" y2="85.7"/><circle class="cls-2" cx="51.99" cy="23.73" r="2.77"/><line class="cls-3" x1="36.88" y1="46.54" x2="29.66" y2="53.76"/><line class="cls-3" x1="40.14" y1="49.31" x2="33.32" y2="62.07"/><line class="cls-3" x1="44.49" y1="53.86" x2="37.27" y2="71.56"/><line class="cls-3" x1="66.26" y1="47.26" x2="73.48" y2="54.48"/><line class="cls-3" x1="62.99" y1="50.03" x2="69.82" y2="62.78"/><line class="cls-3" x1="58.64" y1="54.58" x2="65.86" y2="72.28"/><line class="cls-3" x1="51.84" y1="53.66" x2="52.02" y2="84.88"/><line class="cls-3" x1="55.01" y1="23.73" x2="63.22" y2="23.73"/><line class="cls-3" x1="40.27" y1="23.73" x2="48.94" y2="23.73"/><line class="cls-3" x1="51.75" y1="20.96" x2="51.82" y2="16.23"/><line class="cls-3" x1="49.74" y1="21.76" x2="44.59" y2="18.35"/><line class="cls-3" x1="53.84" y1="22.01" x2="58.69" y2="18.11"/><line class="cls-3" x1="38.07" y1="30.15" x2="66.07" y2="29.85"/><line class="cls-3" x1="38.86" y1="28.34" x2="64.87" y2="28.04"/></g></g></svg>