<svg xmlns="http://www.w3.org/2000/svg" viewBox="0 0 117.58 76.78"><defs><style>.cls-1,.cls-2{fill:#004000;}.cls-1,.cls-2,.cls-3,.cls-4,.cls-5,.cls-6,.cls-7{stroke:#004000;stroke-miterlimit:10;}.cls-1,.cls-5,.cls-6{stroke-width:0.5px;}.cls-3,.cls-6{fill:#2c5f2d;}.cls-4,.cls-5{fill:#2e8957;}.cls-7{fill:none;stroke-width:0.25px;}</style></defs><g id="Capa_2" data-name="Capa 2"><g id="Capa_11" data-name="Capa 11"><path class="cls-1" d="M66.12,46.59c-3.56-1.66-9,.62-9.62,1.16a10.75,10.75,0,0,0-2.44,2.82c-.66,2.27,5.52,3.74,5.39,6.62-.08,1.83-1.69,2-4.09,5.72-1.22,1.91-2.92,4.59-2,6,.68,1.07,2.89,1.24,4.23.29,1.6-1.15.71-3,2.15-5.57,1.93-3.37,5-2.64,5.72-5.13.74-2.79-2.81-5-1.81-7.23.88-1.91,4.22-1.63,4.3-2.89C68,47.46,66.35,46.69,66.12,46.59Z"/><path class="cls-2" d="M36.34,47.87c-.9,2.16,1.72,4,.85,6.93-.53,1.8-4.83,3.19-6.5,5.94a35.75,35.75,0,0,0-3.51,7.73c-.05,1.26-.15,4,1.27,4.7,1.07.53,4.38-.22,5.1-1.45,1.1-1.89.74-3.59,1.4-5.82.89-3,8.31-3.79,10.64-7.06s.33-11.31-2.67-13C40.78,44.67,37.21,45.8,36.34,47.87Z"/><path class="cls-3" d="M31.4,34.81c9.2-1.75,6.51-3.79,12.21-3.35,2.56.19,4.22-1,7.79-1.2,3.16-.21,6-8,6.48-10.75,1.38-7.26,17.45-9.59,19-10.37A60.47,60.47,0,0,1,96.66,3.57C109.74,2,116.11,1.51,117,3.27s-7.51,5.5-12.76,9C94.93,18.59,90.92,20,84.54,25.23c-1.43,1.19-9.38,7.66-8.16,10.79s-2.54,1.9-5.35,2.57c-2.1.5-3.49,3.49-3.73,6.3-.28,3.19,1.62,7.43,4.49,8.72,2.22,1,3.58,2,3.65,3.35.06,1.08-1.18,1.27-2.54,3.19-.63.89.33,3-.94,7-.62,2-.82,2.74-1.59,3.35-1.2,1-5.81,1.12-6.32.34S65,69,66.17,65.4c.67-2.08,1.85-3.19,1.48-4.25-.62-1.8-2.73-2.56-4-3-3-1.09-1.18-.13-2.51-1.51-.58-.6-.81-1.41-1.27-3a8.22,8.22,0,0,0-4.33-4.7c-.49-.1-3.07,2.13-4.76,3-1.21.64-.75,2.16-.77,3.69C50,58,51,58.54,51,61c0,.84-.3.81-1.75,3.85-1.16,2.45-3.35,3.67-3.83,5.37-.66,2.35-.38,3-1.11,3.69C43,75.13,40.19,75,39.51,73.73c-1-1.74.09-4.6,1.89-8.22,2.35-4.71,1.27-13.86-7-16.49C23.75,45.64,16.9,51.72,15,46.9c-1.14-2.92,1.77-6.54,1.91-6.71C19.54,37,22.71,36.46,31.4,34.81Z"/><path class="cls-4" d="M1.38,66.5c-3.44-8.86,4.05-15,8.2-20.16A23.64,23.64,0,0,1,15.71,41c7-4.53,9.24-2.7,11-.23C29,44,19.49,45.11,15.19,57.16c-2.76,7.76-2.11,3.18-7.91,8.14C4.27,67.88,2.62,69.69,1.38,66.5Z"/><path class="cls-5" d="M69.81,20.44c.34-4.7-5.65-8.58-8.44-7.48-.23.09-.39.2-3,3C56.17,18.43,56,18.63,56,19c-.41,2.33,2.73,5,5.19,6.12a6.15,6.15,0,0,0,4.43.73A6.28,6.28,0,0,0,69.81,20.44Z"/><path class="cls-5" d="M79.14,15.33c2.18-4.12-.29-8.43-3.26-8.66-.25,0-.44,0-3.9,1.43-3,1.23-3.2,1.35-3.42,1.68-1.29,1.94,2.84,8.07,4.59,8.61C75.69,19.18,78.06,17.36,79.14,15.33Z"/><path class="cls-5" d="M90,8.83c1.18-2.3.61-5-2.32-5.6-.24,0-.43,0-4,1-3.12.87-3.33,1-3.58,1.26-1.49,1.78,2,5,3.64,5.72A5,5,0,0,0,90,8.83Z"/><path class="cls-5" d="M101.35,5.84c1.54-2,1-2.73-1.37-4.24-.21-.14-.42-.12-4.12.21-3.21.3-3.44.35-3.73.6C90.37,3.89,93.25,6,94.78,7A5,5,0,0,0,101.35,5.84Z"/><path class="cls-5" d="M112,3.61c.51-.71,1.31-1.49-.71-3.25-.19-.17-.42-.14-4.12.09-3.22.2-3.58.13-3.75.48-.91,1.83,1,1.9,2.48,3C108.07,5.48,110.64,5.47,112,3.61Z"/><path class="cls-5" d="M62,28s-4.83-4.58-7.47-3.13a15.53,15.53,0,0,0-1.44,3.32c-.12,2.37,6.46,5.28,8.21,4.76C63.88,32.2,62,28,62,28Z"/><path class="cls-5" d="M68.19,49.86c1.07-.76,1.69-2.6,1-3.69-.88-1.29-3-.62-3.14-.59-1.23.4-2.58,1.62-2.42,2.71C63.78,49.71,66.55,51,68.19,49.86Z"/><path class="cls-5" d="M71.06,53.93c.87-.9,1.13-2.6.25-3.33-1.06-.88-3,.21-3.07.26-1.08.63-2.14,2-1.8,2.86C66.88,54.87,69.72,55.3,71.06,53.93Z"/><path class="cls-5" d="M43.53,57.79a2.76,2.76,0,0,1-2.92-2.26c-.08-1.59,2-2.49,2.11-2.52,1.2-.5,3-.43,3.49.52C46.9,54.78,45.5,57.62,43.53,57.79Z"/><path class="cls-5" d="M43.16,63.3C42,63.17,40.74,62,41,60.86c.3-1.38,2.46-1.79,2.55-1.81,1.23-.21,2.85.15,3.11,1.06C47,61.29,45,63.5,43.16,63.3Z"/><ellipse class="cls-6" cx="4.55" cy="62.36" rx="0.72" ry="1.09"/><path class="cls-5" d="M64.1,69.24a1.69,1.69,0,0,0-1.16,2.23,1.28,1.28,0,0,0,1.59.34A1.5,1.5,0,0,0,65.27,70,1.23,1.23,0,0,0,64.1,69.24Z"/><path class="cls-5" d="M66.46,69.62a1.7,1.7,0,0,0-1.17,2.23,1.28,1.28,0,0,0,1.59.34,1.48,1.48,0,0,0,.74-1.79A1.21,1.21,0,0,0,66.46,69.62Z"/><path class="cls-5" d="M39.3,71.91c-2,.3-1.79,2.32-1.61,3s1.35.58,2.19.45,1.24-.71,1-2.43A1.44,1.44,0,0,0,39.3,71.91Z"/><path class="cls-5" d="M44.35,71.42a1.73,1.73,0,0,0,.88,2.38,1.32,1.32,0,0,0,1.26-1.07A1.48,1.48,0,0,0,45.67,71,1.21,1.21,0,0,0,44.35,71.42Z"/><path class="cls-5" d="M41.31,72.94c-2,.3-1.79,2.31-1.61,3s1.35.59,2.19.46,1.25-.72,1-2.43A1.43,1.43,0,0,0,41.31,72.94Z"/><path class="cls-5" d="M70.5,68.67a1.72,1.72,0,0,0,.88,2.38A1.33,1.33,0,0,0,72.64,70a1.48,1.48,0,0,0-.82-1.75A1.21,1.21,0,0,0,70.5,68.67Z"/><path class="cls-5" d="M56.36,34.44s-3.47-4.87-6.44-5.08c-.25,0-4.26,0-4.47.35-1.28,1.95,6.12,8,7.87,8.57C55.87,39,56.36,34.44,56.36,34.44Z"/><path class="cls-5" d="M74.89,30.27c-1.91-1.22,6.1-8.79,12-12.49,2.64-1.67,3-1.42,10.33-5,10-4.78,13.06-7,13.77-6.12.91,1.13-8.23,8.76-12.81,12.06C80.42,31.51,76.19,31.09,74.89,30.27Z"/><polyline class="cls-7" points="76.19 27.57 84.93 21.54 91.61 17.34 99.72 13.57 109.74 6.78"/><polyline class="cls-7" points="75.23 28.66 86.28 22.63 92.09 18.6 95.9 17.01 101.87 13.57 106.4 10.55 110.53 6.78"/><polyline class="cls-7" points="75.07 30 80.56 26.99 89.38 23.21 92.56 19.86 99.08 15.92 103.14 14.07 105.36 12.82"/><path class="cls-5" d="M74.19,32.81a4.08,4.08,0,0,0-3.56,3.24c-.2,2,2.17,2.85,2.27,2.88,1.36.45,3.42.13,4.09-1.15C77.87,36.12,76.46,32.74,74.19,32.81Z"/><path class="cls-7" d="M29.77,47.6a22.92,22.92,0,0,0,1.69-3.36,34.14,34.14,0,0,0,.32-5.36"/><path class="cls-7" d="M31.44,47.6a22.92,22.92,0,0,0,1.69-3.36,34.14,34.14,0,0,0,.32-5.36"/><path class="cls-7" d="M33,47.93a23.22,23.22,0,0,0,1.69-3.35A34.31,34.31,0,0,0,35,39.21"/><path class="cls-5" d="M41,52.7c-1.2.51-3.83-1.31-2.93-2.25,1.59-1.67,5.41-2.09,5.61-2C45,49,43,51.88,41,52.7Z"/><path class="cls-5" d="M72.68,55c-1.13.48-2,1.95-1.42,3,.66,1.23,2.84,1,2.93,1,1.23-.16,2.69-1,2.69-1.94C76.89,55.79,74.41,54.27,72.68,55Z"/><path class="cls-5" d="M49.69,58.86c-1,.15-1.93,1.12-1.66,2,.32,1.1,2.11,1.35,2.18,1.36,1,.13,2.34-.22,2.51-1C52.94,60.33,51.22,58.63,49.69,58.86Z"/></g></g></svg>