<svg xmlns="http://www.w3.org/2000/svg" viewBox="0 0 82.56 58.72"><defs><style>.cls-1{fill:#646464;stroke:sienna;stroke-miterlimit:10;stroke-opacity:0;stroke-width:2px;}.cls-2{fill:#969696;}.cls-3{fill:#323232;}</style></defs><g id="Capa_2" data-name="Capa 2"><g id="Capa_11" data-name="Capa 11"><path class="cls-1" d="M1.49,50.22,6.36,40a5,5,0,0,1,2-2.14L40.66,19.39A4.89,4.89,0,0,1,43,18.75l6.41-.13a4.89,4.89,0,0,1,4.24,2.3l3.48,5.55a4.91,4.91,0,0,1-1.33,6.62L22.38,56.59a5,5,0,0,1-2.91.89L5.82,57.24A4.9,4.9,0,0,1,1.49,50.22Z"/><path class="cls-2" d="M9.72,38.16,42,19.81a.28.28,0,0,1,.12,0l6.83-.17a.26.26,0,0,1,.15.48l-29,18.62a.23.23,0,0,1-.14,0L9.85,38.65A.26.26,0,0,1,9.72,38.16Z"/><polygon class="cls-3" points="51.08 20.5 56.12 28.56 25.26 51.74 21.27 39.69 51.08 20.5"/><path class="cls-1" d="M25.16,50.46,30,40.26a4.85,4.85,0,0,1,2-2.14l32.3-18.49A4.81,4.81,0,0,1,66.67,19l6.41-.13a4.92,4.92,0,0,1,4.25,2.3l3.48,5.55a4.92,4.92,0,0,1-1.33,6.62L46.05,56.82a4.91,4.91,0,0,1-2.9.9L29.5,57.48A4.91,4.91,0,0,1,25.16,50.46Z"/><path class="cls-2" d="M33.4,38.4,65.66,20.05a.2.2,0,0,1,.13,0l6.82-.17a.26.26,0,0,1,.15.48L43.81,38.94a.33.33,0,0,1-.14,0l-10.15-.09A.26.26,0,0,1,33.4,38.4Z"/><polygon class="cls-3" points="74.75 20.74 79.79 28.79 48.94 51.97 44.95 39.93 74.75 20.74"/><path class="cls-1" d="M16.26,32.6l4.88-10.2a4.88,4.88,0,0,1,2-2.14L55.43,1.77a4.93,4.93,0,0,1,2.34-.65L64.18,1a4.92,4.92,0,0,1,4.25,2.3l3.48,5.55a4.9,4.9,0,0,1-1.34,6.61L37.15,39a4.87,4.87,0,0,1-2.9.89L20.6,39.61A4.9,4.9,0,0,1,16.26,32.6Z"/><path class="cls-2" d="M24.5,20.54,56.76,2.18a.27.27,0,0,1,.12,0L63.71,2a.27.27,0,0,1,.15.49L34.91,21.08a.42.42,0,0,1-.15,0L24.62,21A.26.26,0,0,1,24.5,20.54Z"/><polygon class="cls-3" points="65.85 2.88 70.89 10.93 40.03 34.11 36.05 22.07 65.85 2.88"/></g></g></svg>