<svg xmlns="http://www.w3.org/2000/svg" viewBox="0 0 24.49 24.49"><defs><style>.cls-1{fill:#323232;}.cls-1,.cls-2{stroke:#323232;stroke-miterlimit:10;stroke-width:0.5px;}.cls-2{fill:#fff;}</style></defs><g id="Capa_2" data-name="Capa 2"><g id="Capa_13" data-name="Capa 13"><path class="cls-1" d="M1.62,7.14v10.2a1.8,1.8,0,0,0,.89,1.56L11.35,24a1.79,1.79,0,0,0,1.79,0L22,18.9a1.8,1.8,0,0,0,.89-1.56V7.14A1.79,1.79,0,0,0,22,5.59L13.14.49a1.79,1.79,0,0,0-1.79,0L2.51,5.59A1.79,1.79,0,0,0,1.62,7.14Z"/><path class="cls-2" d="M7.14,22.87h10.2A1.8,1.8,0,0,0,18.9,22L24,13.14a1.79,1.79,0,0,0,0-1.79L18.9,2.51a1.8,1.8,0,0,0-1.56-.89H7.14a1.79,1.79,0,0,0-1.55.89L.49,11.35a1.79,1.79,0,0,0,0,1.79L5.59,22A1.79,1.79,0,0,0,7.14,22.87Z"/></g></g></svg>