<svg xmlns="http://www.w3.org/2000/svg" viewBox="0 0 22.26 24.99"><defs><style>.cls-1,.cls-2{fill:#fff;stroke-miterlimit:10;}.cls-1{stroke:#000;}.cls-2{stroke:#ffcb00;stroke-width:0.5px;}</style></defs><g id="Capa_2" data-name="Capa 2"><g id="Capa_13" data-name="Capa 13"><path class="cls-1" d="M.5,7.39v10.2a1.79,1.79,0,0,0,.9,1.56l8.83,5.1a1.81,1.81,0,0,0,1.8,0l8.83-5.1a1.81,1.81,0,0,0,.9-1.56V7.39a1.8,1.8,0,0,0-.9-1.55L12,.74a1.81,1.81,0,0,0-1.8,0L1.4,5.84A1.78,1.78,0,0,0,.5,7.39Z"/><path class="cls-2" d="M1.56,8v9a1.81,1.81,0,0,0,.9,1.56L10.23,23A1.81,1.81,0,0,0,12,23l7.77-4.48A1.82,1.82,0,0,0,20.69,17V8a1.81,1.81,0,0,0-.89-1.56L12,2a1.81,1.81,0,0,0-1.8,0L2.46,6.45A1.8,1.8,0,0,0,1.56,8Z"/><path class="cls-2" d="M2.52,8.56v7.87A1.78,1.78,0,0,0,3.42,18l6.81,3.94a1.81,1.81,0,0,0,1.8,0L18.84,18a1.8,1.8,0,0,0,.9-1.55V8.56A1.8,1.8,0,0,0,18.84,7L12,3.07a1.81,1.81,0,0,0-1.8,0L3.42,7A1.78,1.78,0,0,0,2.52,8.56Z"/></g></g></svg>