<svg xmlns="http://www.w3.org/2000/svg" viewBox="0 0 14.5 14.5"><defs><style>.cls-1{fill:none;stroke:#250040;stroke-miterlimit:10;stroke-width:0.5px;}</style></defs><g id="Capa_2" data-name="Capa 2"><g id="Capa_13" data-name="Capa 13"><path class="cls-1" d="M1.35,5.28a4.43,4.43,0,0,1,0-2.76A4.28,4.28,0,0,1,2.78.88L2.94.77C4.38-.14,5.34.42,10.09.43c1.93,0,2.62,0,3.32.47,1.87,1.37.08,4.09-.26,4.21s.17-2.68-.35-2.59a8.25,8.25,0,0,0-.27,5.32,9.23,9.23,0,0,1,.34,1.36,4.43,4.43,0,0,1,0,2.76,4.46,4.46,0,0,1-1.4,1.65l-.16.1a4.79,4.79,0,0,1-.74.36c-1.16.41-6.41,0-6.41,0-2.5-.21-2.87,0-3.32-.47C-.4,12.38.67,9.47,1.07,9.38c0,0,0,0,0,0C1,10.91,1.27,12,1.42,12a8.21,8.21,0,0,0,.27-5.32A9.23,9.23,0,0,1,1.35,5.28Z"/></g></g></svg>