<svg xmlns="http://www.w3.org/2000/svg" viewBox="0 0 14.5 14.5"><defs><style>.cls-1{fill:none;stroke:#630;stroke-miterlimit:10;stroke-width:0.5px;}</style></defs><g id="Capa_2" data-name="Capa 2"><g id="Capa_13" data-name="Capa 13"><path class="cls-1" d="M13.44,5.84h0a.8.8,0,0,1-.74-.5l-.23-.54a.83.83,0,0,1,.17-.9h0a.81.81,0,0,0,0-1.15l-.84-.85a.8.8,0,0,0-1.14,0,.8.8,0,0,1-.89.18l-.61-.26a.8.8,0,0,1-.49-.75h0A.82.82,0,0,0,7.84.25H6.66a.82.82,0,0,0-.82.82h0a.8.8,0,0,1-.49.75l-.61.26a.8.8,0,0,1-.89-.18.8.8,0,0,0-1.14,0l-.84.85a.81.81,0,0,0,0,1.15h0A.83.83,0,0,1,2,4.8l-.23.54a.8.8,0,0,1-.74.5h0a.81.81,0,0,0-.81.81v1.2a.81.81,0,0,0,.81.81h0a.8.8,0,0,1,.74.5L2,9.7a.83.83,0,0,1-.17.9h0a.81.81,0,0,0,0,1.15l.84.85a.8.8,0,0,0,1.14,0,.8.8,0,0,1,.89-.18l.61.26a.8.8,0,0,1,.49.75h0a.82.82,0,0,0,.82.82H7.84a.82.82,0,0,0,.82-.82h0a.8.8,0,0,1,.49-.75l.61-.26a.8.8,0,0,1,.89.18.8.8,0,0,0,1.14,0l.84-.85a.81.81,0,0,0,0-1.15h0a.83.83,0,0,1-.17-.9l.23-.54a.8.8,0,0,1,.74-.5h0a.81.81,0,0,0,.81-.81V6.65A.81.81,0,0,0,13.44,5.84Z"/></g></g></svg>