<svg xmlns="http://www.w3.org/2000/svg" viewBox="0 0 27.94 29.49"><defs><style>.cls-1{fill:#630;stroke:#630;stroke-miterlimit:10;stroke-width:0.5px;}</style></defs><g id="Capa_2" data-name="Capa 2"><g id="Capa_13" data-name="Capa 13"><path class="cls-1" d="M14.43,27.27c.83-3.09,1.47-6.78,1.53-7.15,0,0,0,0,0-.06l1.33-4.29a.47.47,0,0,1,.45-.33h5.12a.47.47,0,0,1,.48.48l-.21,12.83a.48.48,0,0,0,.45.49h0a.47.47,0,0,0,.5-.48V15.91a.48.48,0,0,1,.48-.47h1.9a.48.48,0,0,1,.48.49l-.22,10.89a.48.48,0,0,0,.46.48h0a.47.47,0,0,0,.5-.47V5.55a.48.48,0,0,0-.49-.48h0a.48.48,0,0,0-.46.49l.2,8a.48.48,0,0,1-.47.49h-1.9a.49.49,0,0,1-.48-.48v-10a.48.48,0,0,0-.49-.48h0a.48.48,0,0,0-.46.49l.21,10a.48.48,0,0,1-.48.49H18a.47.47,0,0,1-.46-.61l.28-1a.48.48,0,0,1,.43-.35,4.38,4.38,0,0,0,2.6-.88c.41-.46.21-1.68.08-2.29a.47.47,0,0,0-.45-.38l-1.43,0a.47.47,0,0,1-.44-.61l.07-.24a.48.48,0,0,1,.46-.34h.67a.49.49,0,0,0,.48-.51C20.23,5.18,19.5.25,14,.25,8.92.42,7.88,5.14,7.66,6.76a.49.49,0,0,0,.48.54h.63a.48.48,0,0,1,.46.34l.07.24a.47.47,0,0,1-.44.61l-1.43,0A.47.47,0,0,0,7,8.92c-.13.61-.33,1.83.08,2.29a4.38,4.38,0,0,0,2.61.88.48.48,0,0,1,.42.35l.28,1a.47.47,0,0,1-.46.61H5.07a.48.48,0,0,1-.48-.49l.21-10a.48.48,0,0,0-.46-.49h0a.48.48,0,0,0-.49.48v10a.49.49,0,0,1-.48.48H1.48A.48.48,0,0,1,1,13.58l.21-8a.49.49,0,0,0-.47-.49h0a.48.48,0,0,0-.49.48V26.83a.47.47,0,0,0,.5.47h0a.48.48,0,0,0,.45-.48L1,15.93a.48.48,0,0,1,.48-.49h1.9a.48.48,0,0,1,.48.47V28.76a.48.48,0,0,0,.5.48h0a.49.49,0,0,0,.46-.49L4.59,15.92a.48.48,0,0,1,.48-.48h5.12a.46.46,0,0,1,.45.33L12,20.06s0,0,0,.06c.06.37.7,4.06,1.53,7.15A.48.48,0,0,0,14.43,27.27Z"/></g></g></svg>